<?xml version="1.0" standalone="no"?>
<!DOCTYPE svg PUBLIC "-//W3C//DTD SVG 20010904//EN"
 "http://www.w3.org/TR/2001/REC-SVG-20010904/DTD/svg10.dtd">
<svg version="1.0" xmlns="http://www.w3.org/2000/svg"
 width="800.000000pt" height="800.000000pt" viewBox="0 0 800.000000 800.000000"
 preserveAspectRatio="xMidYMid meet">
<metadata>
Created by potrace 1.11, written by Peter Selinger 2001-2013
</metadata>
<g transform="translate(0.000000,800.000000) scale(0.100000,-0.100000)"
fill="#000000" stroke="none">
<path d="M3230 6585 c-17 -20 -58 -152 -81 -260 -10 -49 -20 -95 -22 -101 -5
-20 -29 -44 -43 -44 -8 0 -14 -5 -14 -10 0 -7 7 -7 21 0 11 7 23 9 26 7 4 -5
-11 -95 -23 -140 -3 -9 -17 -24 -32 -32 l-27 -15 28 6 c26 6 27 5 27 -39 0
-31 5 -47 15 -51 8 -3 15 -1 15 4 0 6 -4 10 -10 10 -5 0 -10 20 -10 45 0 40 5
50 41 85 23 22 39 43 35 47 -3 3 -6 2 -6 -3 0 -6 -14 -21 -31 -33 l-32 -24 6
24 c3 13 10 49 16 80 11 54 13 56 59 72 58 21 82 22 82 1 0 -8 4 -13 9 -10 14
9 60 -51 66 -88 5 -24 1 -46 -14 -77 -25 -51 -27 -66 -5 -48 42 35 56 112 29
159 -8 14 -17 32 -21 40 -24 52 -77 65 -148 35 -35 -15 -36 -14 -36 5 0 35 33
155 44 162 7 5 6 8 -3 8 -11 0 -9 4 5 15 10 8 14 15 7 15 -24 0 23 135 52 146
8 3 12 10 9 15 -8 13 -20 11 -34 -6z"/>
<path d="M4222 6520 c-98 -44 -142 -113 -142 -220 0 -38 4 -70 9 -70 5 0 8
-11 5 -24 -11 -61 53 -126 250 -255 28 -18 42 -30 31 -26 -45 15 -210 16 -265
1 -43 -12 -46 -14 -15 -10 83 12 205 4 265 -16 69 -23 74 -24 64 -9 -4 7 -2
10 5 8 7 -3 12 -8 11 -13 -1 -10 46 -36 66 -36 13 0 29 -18 22 -25 -2 -2 -22
2 -43 10 -22 8 -56 14 -75 15 -20 0 -40 4 -45 8 -13 11 -312 -3 -328 -16 -6
-5 -21 -6 -32 -2 -17 6 -14 9 20 18 64 18 115 25 188 25 37 0 67 3 67 8 0 14
-183 1 -270 -20 -47 -12 -96 -21 -109 -21 -19 0 -21 -3 -12 -14 7 -8 8 -16 4
-18 -4 -3 -3 -3 4 -2 7 2 15 -1 18 -6 3 -5 60 -7 128 -6 150 3 312 -10 352
-29 51 -23 72 -30 124 -38 14 -2 27 -9 29 -15 5 -15 0 -14 -63 2 -28 7 -63 10
-81 6 -30 -7 -234 5 -263 15 -11 4 -11 8 0 21 12 15 9 16 -36 11 -28 -4 -103
-11 -169 -17 -148 -13 -194 -34 -59 -26 115 6 136 1 130 -30 -4 -25 0 -24 53
14 23 16 24 16 17 -1 -6 -16 -4 -16 21 -4 15 7 37 11 50 9 19 -3 21 -6 11 -18
-9 -11 -8 -14 2 -14 11 0 11 -2 -1 -10 -9 -6 -10 -10 -3 -10 7 0 17 8 22 18 6
9 11 13 11 8 0 -5 7 -3 15 4 9 7 19 10 22 6 10 -10 -47 -54 -80 -61 -33 -8
-48 2 -27 15 24 15 5 11 -26 -5 -16 -8 -50 -15 -75 -15 -48 0 -203 -30 -253
-49 -49 -19 -20 -24 31 -6 106 38 397 48 473 17 23 -10 22 -10 -13 -10 -20 1
-40 -2 -44 -5 -3 -4 3 -7 14 -7 34 0 137 -47 143 -66 5 -12 9 -14 14 -6 9 15
76 16 76 2 0 -6 8 -10 17 -8 10 2 18 -2 18 -9 0 -20 14 -26 30 -13 8 7 20 10
27 7 7 -2 16 -4 19 -3 4 0 16 -7 27 -17 12 -11 25 -16 31 -13 5 3 15 0 23 -7
7 -8 19 -12 26 -9 6 2 12 -2 12 -8 0 -7 -9 -14 -20 -17 -20 -5 -28 -33 -10
-33 28 0 14 -61 -26 -117 -19 -27 -13 -30 11 -7 9 9 19 13 22 10 4 -4 7 -44 6
-89 l0 -82 9 60 c5 33 7 80 4 105 -3 30 0 52 10 64 18 26 18 46 -1 46 -8 0
-15 8 -15 18 0 20 36 46 52 36 7 -4 8 -3 4 4 -4 7 -13 12 -19 12 -7 1 -23 10
-37 21 l-25 21 30 24 c35 28 45 30 45 8 0 -9 9 -18 20 -21 15 -4 19 -11 14
-25 -5 -17 -2 -19 18 -14 12 3 18 3 11 0 -7 -3 -9 -12 -6 -20 3 -10 -2 -17
-14 -20 -20 -5 -25 -36 -8 -51 4 -5 5 -2 1 5 -4 7 -1 12 7 12 8 0 21 10 30 23
14 22 15 22 36 3 26 -24 26 -30 -1 -56 -18 -17 -19 -20 -5 -20 9 0 17 5 17 10
0 17 29 11 40 -9 7 -14 7 -20 -2 -23 -7 -3 -4 -12 10 -26 24 -24 29 -42 11
-42 -6 0 -2 -8 9 -17 11 -10 24 -38 30 -63 31 -128 35 -188 28 -394 -5 -150
-3 -207 4 -200 13 13 19 433 8 504 -4 25 -4 36 0 25 4 -11 13 -31 19 -45 6
-14 20 -46 30 -73 10 -27 23 -45 30 -43 16 7 49 -97 68 -214 9 -52 18 -111 22
-130 3 -19 7 -75 7 -124 1 -118 21 -127 29 -14 9 116 7 250 -3 218 -7 -21 -8
-19 -11 20 -1 25 -2 70 0 100 1 30 -5 98 -14 150 -30 177 -30 166 -4 173 13 3
25 4 28 2 2 -3 -1 -5 -7 -5 -7 0 -12 -5 -12 -11 0 -6 6 -9 14 -6 9 4 12 0 9
-13 -3 -12 0 -18 9 -16 24 3 38 17 38 38 0 11 8 22 19 25 11 3 22 12 24 22 4
14 5 14 6 -1 0 -10 6 -18 11 -18 14 0 13 -27 -2 -36 -8 -5 -9 -2 -5 9 4 11 1
17 -7 17 -9 0 -12 -11 -9 -34 3 -30 0 -36 -27 -48 -33 -14 -41 -51 -14 -62 9
-4 14 -9 11 -13 -6 -5 19 -63 27 -63 2 0 10 8 17 17 12 15 12 16 -2 11 -13 -5
-18 2 -23 30 -9 55 -8 59 14 65 15 4 20 0 20 -14 0 -11 -5 -16 -14 -13 -10 4
-12 -2 -9 -20 4 -17 12 -26 24 -26 24 0 24 -11 -1 -54 -22 -40 -10 -58 21 -30
11 10 19 12 19 6 0 -7 -4 -12 -10 -12 -5 0 -12 -11 -16 -25 -3 -14 -9 -25 -13
-25 -4 0 -5 -16 -3 -35 2 -19 8 -35 13 -35 5 0 6 7 3 15 -4 8 -1 15 4 15 6 0
13 12 15 28 2 17 5 10 6 -20 1 -40 -2 -48 -21 -54 -19 -6 -19 -7 -5 -16 20
-11 23 -38 5 -38 -10 0 -9 -3 1 -9 10 -7 12 -20 6 -57 -4 -27 -9 -69 -10 -94
-25 -387 -46 -520 -84 -520 -5 0 -11 -9 -14 -20 -3 -11 -12 -20 -19 -20 -9 0
-20 -17 -27 -39 -10 -34 -83 -121 -102 -121 -16 0 14 319 36 389 11 33 12 48
4 57 -9 10 -7 15 5 20 24 9 20 21 -6 19 -19 -1 -28 -14 -47 -66 -13 -35 -27
-80 -32 -99 -13 -57 -54 -167 -68 -184 -13 -15 -16 -14 -32 11 -24 36 -24 71
0 169 23 93 32 154 22 154 -4 0 -14 -37 -23 -82 -9 -46 -26 -114 -37 -153 -11
-38 -23 -82 -26 -97 -9 -45 -28 -34 -20 12 9 53 -9 53 -52 0 -39 -46 -40 -52
-11 -48 37 5 24 -55 -18 -87 -25 -19 -34 -19 -34 0 0 8 5 15 11 15 7 0 9 11 5
30 -3 19 2 49 14 81 11 27 20 58 20 69 0 10 7 25 15 34 8 8 15 23 14 33 0 10
-3 13 -6 5 -6 -16 -23 -5 -23 16 0 9 -8 26 -17 37 -15 19 -15 19 -9 -10 5 -25
4 -27 -5 -12 -14 24 12 97 48 133 13 13 21 29 17 35 -4 8 -9 7 -15 -2 -6 -10
-9 -3 -10 21 l0 35 -15 -40 c-13 -37 -57 -84 -78 -85 -5 0 -15 -8 -23 -17 -13
-17 -14 -16 -9 5 4 12 9 31 12 42 3 11 1 20 -5 20 -6 0 -11 -8 -11 -18 0 -10
-15 -45 -32 -77 -18 -32 -49 -88 -69 -124 -20 -36 -42 -67 -50 -69 -17 -4
-101 -103 -94 -111 3 -2 15 5 28 17 13 12 27 22 33 22 5 1 23 12 39 26 17 15
22 24 13 20 -10 -3 -18 -2 -18 2 0 9 43 47 51 45 3 -1 6 4 6 11 0 12 64 109
68 103 8 -8 -10 -67 -26 -87 l-20 -25 6 25 c4 17 3 21 -3 11 -5 -7 -8 -30 -5
-50 5 -37 -34 -200 -80 -336 l-24 -70 -45 3 c-31 3 -66 -4 -109 -21 -119 -46
-155 -57 -177 -57 -15 0 -21 -4 -16 -11 4 -7 24 -9 50 -6 l44 5 1 -47 c1 -25
3 -77 5 -116 2 -38 4 -78 5 -87 0 -10 5 -20 10 -24 6 -3 7 18 3 60 -5 49 -4
66 6 66 18 0 65 -36 84 -65 16 -24 16 -29 -6 -98 -13 -40 -38 -99 -57 -132
-41 -73 -63 -134 -54 -148 3 -6 1 -7 -5 -3 -7 4 -12 1 -12 -8 0 -24 -54 -62
-106 -75 -27 -7 -69 -18 -94 -26 -83 -26 -249 -48 -326 -43 -72 5 -98 -3 -51
-16 45 -12 137 -5 302 23 179 30 228 47 279 96 17 17 43 39 56 50 14 11 21 17
16 12 -6 -4 -15 -7 -20 -7 -6 0 12 21 39 48 28 26 76 77 108 112 32 36 55 56
52 45 -6 -17 -4 -17 14 4 14 15 19 31 16 45 -5 15 -4 17 3 7 7 -9 11 -10 17
-2 4 8 17 2 39 -17 18 -15 56 -43 84 -62 29 -18 53 -40 53 -49 4 -52 7 -71 18
-114 6 -27 9 -52 7 -56 -3 -4 10 -43 29 -87 19 -43 35 -86 35 -94 0 -8 9 -33
20 -55 11 -22 19 -45 20 -51 1 -45 100 -318 200 -552 33 -78 60 -147 60 -152
0 -21 33 -61 46 -56 8 3 20 -6 29 -23 24 -48 64 -46 66 4 0 19 1 19 11 -2 7
-14 20 -23 33 -23 30 0 82 60 90 104 5 24 11 33 21 29 27 -10 44 17 44 71 1
53 4 53 36 -1 10 -16 13 -16 28 -3 15 11 17 24 11 69 -4 43 -3 52 5 41 9 -11
10 19 5 120 -4 74 -8 149 -10 165 -3 21 6 47 28 85 18 30 39 71 47 90 7 19 17
40 23 47 5 7 6 17 2 23 -3 5 -2 10 3 10 4 0 16 26 26 58 10 31 26 75 36 97 34
78 67 210 49 200 -5 -4 -9 -13 -9 -21 0 -20 -59 -192 -81 -236 -11 -21 -19
-44 -19 -53 0 -8 -4 -15 -10 -15 -5 0 -10 -5 -10 -12 0 -7 -19 -45 -42 -85
-28 -49 -44 -69 -49 -60 -10 18 -29 303 -35 521 -2 100 -5 186 -5 191 -1 6 1
35 5 65 3 30 13 141 21 245 21 251 42 434 66 578 11 64 17 122 14 127 -10 16
-25 1 -25 -24 0 -12 -4 -26 -10 -32 -10 -10 -36 -119 -46 -189 -3 -22 -12 -47
-20 -56 -17 -19 -18 -36 -1 -42 7 -3 5 -6 -5 -6 -10 -1 -23 8 -30 19 -18 28
-31 25 -24 -5 4 -14 2 -25 -4 -25 -5 0 -10 5 -10 11 0 5 -4 7 -10 4 -5 -3 -10
-4 -10 -1 0 11 23 56 29 56 13 0 75 60 68 66 -4 4 -7 2 -7 -5 0 -7 -5 -9 -10
-6 -6 3 -17 0 -25 -8 -8 -9 -23 -14 -32 -13 -15 3 -18 12 -15 52 1 27 -2 63
-7 79 l-9 30 -1 -31 c-1 -16 -7 -36 -13 -42 -10 -10 -10 -15 2 -22 12 -8 11
-10 -5 -10 -17 0 -17 -2 -5 -10 13 -9 13 -10 0 -10 -10 0 -11 -3 -4 -8 8 -5 7
-20 -4 -54 -20 -64 -35 -61 -28 5 7 70 15 167 21 252 4 60 8 87 21 138 1 4 2
16 3 28 0 11 6 17 11 14 7 -4 6 -14 -1 -28 -9 -20 -9 -21 4 -4 11 13 13 28 7
52 -4 19 -4 35 1 37 5 2 12 31 15 65 9 81 34 108 34 38 0 -61 8 -55 11 8 2 35
6 46 16 43 8 -3 13 2 13 15 0 12 5 19 13 16 6 -2 11 -11 9 -21 -2 -9 4 -16 12
-16 10 0 17 -15 22 -45 3 -25 10 -45 14 -45 4 0 5 -11 2 -26 -4 -23 -2 -24 22
-18 17 4 26 2 26 -6 0 -7 -6 -10 -14 -7 -11 4 -16 -7 -21 -45 -4 -29 -3 -53 2
-57 6 -3 13 -13 16 -21 3 -8 4 8 2 35 -3 34 -2 40 3 21 l7 -29 11 40 c10 38 9
40 -10 36 -20 -3 -20 -3 1 8 57 30 78 354 37 574 -35 186 -68 263 -153 358
-28 31 -23 34 19 12 25 -13 38 -13 112 0 47 8 100 21 119 29 40 17 99 70 99
90 0 8 11 47 25 88 29 85 31 136 9 183 -16 34 -118 136 -187 188 -41 31 -52
27 -12 -5 14 -11 23 -24 20 -28 -3 -5 3 -14 14 -20 43 -23 113 -97 137 -144
21 -42 25 -59 20 -99 -8 -61 -16 -78 -28 -70 -7 4 -9 -3 -6 -19 3 -15 0 -25
-8 -25 -7 0 -10 10 -8 24 2 12 0 23 -5 23 -11 0 -20 -69 -9 -76 20 -12 -16
-58 -69 -86 -64 -35 -301 -15 -278 22 3 6 -1 7 -10 4 -8 -3 -36 4 -63 16 -66
31 -94 38 -118 30 -13 -5 -34 -1 -60 11 -21 10 -46 18 -54 19 -9 0 -24 6 -35
13 -11 7 -42 21 -69 31 -30 12 -44 21 -36 26 13 8 -2 22 -28 26 -10 2 -11 -1
-1 -12 9 -11 8 -14 -2 -14 -22 1 -136 59 -117 59 9 1 19 -2 21 -7 6 -8 59 -8
73 0 5 3 54 5 108 4 83 -1 104 2 123 17 13 10 23 25 23 33 0 17 -16 19 -24 2
-3 -7 -3 -3 -1 8 4 16 -2 28 -22 44 -24 19 -36 21 -83 16 -100 -10 -178 -41
-172 -67 2 -10 0 -9 -13 1 -21 17 -62 -1 -74 -32 -11 -30 -7 -36 47 -59 24
-11 43 -22 40 -24 -7 -7 -88 27 -88 37 0 4 -9 8 -20 8 -26 0 -80 27 -80 40 0
6 -6 10 -13 10 -7 0 -35 11 -62 23 -37 18 -44 25 -31 30 10 4 35 -2 58 -14 24
-12 53 -19 69 -17 26 4 34 -2 30 -24 -2 -13 17 -9 33 8 20 20 20 40 1 48 -19
7 -43 61 -48 107 -4 44 -68 178 -96 204 -33 29 -57 10 -53 -41 4 -46 65 -189
95 -221 11 -13 16 -23 10 -23 -11 0 -43 32 -43 44 0 4 -6 14 -14 22 -16 16
-61 20 -51 4 3 -6 -1 -7 -10 -3 -12 4 -13 8 -4 13 11 8 -27 36 -91 68 -14 7
-39 22 -56 35 -18 12 -45 30 -60 39 -95 58 -159 116 -190 174 -29 52 -34 70
-36 139 -2 82 8 116 49 161 41 45 64 54 149 54 44 0 84 -3 88 -7 3 -4 15 -7
25 -8 10 -1 33 -12 51 -26 49 -36 135 -119 124 -119 -5 0 -1 -5 9 -11 9 -6 14
-15 11 -21 -4 -6 -2 -8 4 -4 14 9 58 -51 67 -91 10 -48 25 -50 25 -3 0 27 -5
43 -15 46 -8 4 -15 10 -15 16 0 13 -26 38 -40 38 -6 0 -8 5 -5 11 12 19 -16
69 -44 76 -14 3 -39 19 -56 35 -16 15 -33 28 -36 28 -4 0 -9 9 -12 20 -3 12
-14 20 -26 20 -12 0 -39 9 -61 20 -51 26 -131 26 -188 0z m88 2 c0 -5 -7 -9
-15 -9 -8 0 -12 4 -9 9 3 4 9 8 15 8 5 0 9 -4 9 -8z m70 -8 c0 -2 -13 -4 -30
-4 -16 0 -30 4 -30 8 0 5 14 7 30 4 17 -2 30 -6 30 -8z m145 -744 c19 -8 19
-9 -2 -9 -12 -1 -25 4 -28 9 -7 12 2 12 30 0z m-39 -66 c29 -8 57 -20 60 -26
4 -6 -1 -8 -12 -4 -57 17 -149 34 -157 29 -6 -3 -7 -1 -3 5 10 16 48 15 112
-4z m174 -64 c28 -16 56 -30 63 -30 7 0 29 -14 50 -31 20 -17 41 -28 45 -25
11 6 75 -58 66 -66 -3 -3 6 -24 20 -47 14 -22 26 -47 26 -55 0 -7 7 -19 15
-26 8 -7 15 -9 15 -5 0 4 7 2 15 -5 21 -18 19 -35 -2 -19 -15 11 -16 11 -6 -1
12 -13 43 -23 43 -14 0 3 -15 33 -33 68 -18 34 -37 71 -40 81 -15 39 24 -8 45
-54 11 -25 36 -77 56 -116 26 -52 35 -85 37 -126 1 -31 5 -61 9 -67 10 -16
-15 -27 -25 -11 -6 9 -7 4 -3 -16 4 -16 11 -36 17 -43 5 -7 7 -15 4 -19 -4 -3
-19 20 -34 53 -30 67 -32 75 -35 127 -1 20 -6 37 -11 37 -5 0 -4 6 2 14 6 7 9
22 5 32 -5 18 -5 18 6 1 6 -9 8 -22 5 -27 -3 -6 -1 -10 4 -10 15 0 14 23 -2
45 -18 23 -37 12 -29 -18 5 -18 0 -16 -26 13 -18 19 -35 43 -38 52 -3 10 -10
18 -15 18 -5 0 -9 6 -9 14 0 8 -16 33 -35 56 -36 42 -41 55 -27 63 4 2 1 2 -7
0 -22 -6 -94 46 -130 94 -18 25 -48 54 -67 65 -31 18 -41 28 -29 28 2 0 27
-13 55 -30z m-396 4 c5 -13 2 -15 -16 -10 -13 3 -29 6 -36 6 -7 0 -10 5 -7 10
10 16 52 12 59 -6z m53 -9 c0 -8 -4 -15 -9 -15 -10 0 -11 14 -1 23 9 10 10 9
10 -8z m36 -52 c-7 -2 -19 -2 -25 0 -7 3 -2 5 12 5 14 0 19 -2 13 -5z m625
-418 c-3 -3 -9 2 -12 12 -6 14 -5 15 5 6 7 -7 10 -15 7 -18z m176 -32 c-14
-10 -20 -11 -23 -2 -2 7 5 18 15 26 14 10 20 11 23 2 2 -7 -5 -18 -15 -26z
m-164 7 c0 -5 -5 -10 -11 -10 -5 0 -7 5 -4 10 3 6 8 10 11 10 2 0 4 -4 4 -10z
m121 -77 c6 -41 5 -72 -2 -67 -5 3 -9 14 -9 24 0 10 -5 22 -10 25 -6 4 -8 11
-5 16 7 11 25 12 26 2z m229 -19 c0 -8 -19 -13 -24 -6 -3 5 1 9 9 9 8 0 15 -2
15 -3z m-240 -64 c6 -11 8 -20 6 -20 -3 0 -10 9 -16 20 -6 11 -8 20 -6 20 3 0
10 -9 16 -20z m30 -56 c0 -8 -4 -12 -10 -9 -5 3 -10 13 -10 21 0 8 5 12 10 9
6 -3 10 -13 10 -21z m234 -30 c3 -8 2 -12 -4 -9 -6 3 -10 10 -10 16 0 14 7 11
14 -7z m45 -231 c1 -18 -4 -33 -10 -33 -6 0 -9 13 -7 30 1 16 -1 29 -6 29 -18
-1 -25 26 -8 32 20 7 30 -12 31 -58z m28 5 c-3 -8 -6 -5 -6 6 -1 11 2 17 5 13
3 -3 4 -12 1 -19z m120 -140 c-3 -8 -6 -5 -6 6 -1 11 2 17 5 13 3 -3 4 -12 1
-19z m23 -28 c0 -13 -6 -20 -17 -19 -11 0 -13 3 -5 6 6 2 12 11 12 19 0 8 2
14 5 14 3 0 5 -9 5 -20z m-528 -405 c-2 -14 -8 -25 -12 -25 -4 0 -5 11 -2 25
2 14 8 25 12 25 4 0 5 -11 2 -25z m189 -178 c-6 -36 -7 -37 -19 -16 -8 12 -9
18 -4 15 6 -3 13 6 16 20 10 38 15 25 7 -19z m-391 -44 c0 -16 -50 -176 -87
-280 -9 -24 -23 -43 -34 -46 -10 -3 -19 -13 -19 -24 0 -15 2 -15 10 -3 5 8 12
12 15 8 4 -3 -5 -19 -20 -35 -14 -15 -39 -52 -56 -80 -39 -70 -55 -68 -22 3
14 31 26 66 27 79 0 13 4 21 8 19 17 -11 19 39 1 59 -18 21 -18 21 1 7 18 -14
19 -13 13 10 -5 20 0 33 19 54 14 15 28 25 31 23 4 -5 -16 -47 -28 -57 -3 -3
-9 -16 -12 -29 -11 -43 18 -2 49 69 15 36 33 72 40 80 6 8 17 40 24 70 18 82
20 90 31 90 5 0 9 -8 9 -17z m70 -78 l12 -64 -37 -55 c-43 -65 -94 -111 -107
-98 -6 6 1 33 16 70 14 33 35 96 46 139 31 115 29 111 45 90 7 -10 18 -47 25
-82z m337 53 c-3 -7 -5 -2 -5 12 0 14 2 19 5 13 2 -7 2 -19 0 -25z m144 -8 c6
0 7 -4 4 -10 -3 -6 1 -7 9 -4 9 3 16 9 16 13 0 4 6 8 13 8 19 0 15 -42 -7 -66
-11 -12 -16 -24 -13 -28 4 -3 7 -1 7 5 0 7 4 12 9 12 5 0 8 -45 8 -99 l-2
-100 -30 -14 c-57 -27 -72 1 -29 52 19 22 22 31 11 31 -8 0 -18 -7 -21 -16 -4
-9 -10 -14 -13 -10 -10 10 -3 100 9 107 7 4 6 14 -2 29 -8 15 -8 26 -2 32 6 6
7 22 1 40 -7 25 -6 29 7 24 9 -3 20 -6 25 -6z m-251 -10 c0 -18 -32 -60 -41
-54 -11 6 17 64 31 64 6 0 10 -5 10 -10z m173 -43 c-3 -23 -11 -53 -18 -67
-13 -24 -13 -24 -10 10 2 19 3 52 4 72 1 28 5 36 15 32 10 -4 12 -17 9 -47z
m-543 -2 c0 -16 -25 -55 -36 -55 -7 0 -15 -8 -17 -17 -3 -11 -5 -6 -6 11 -1
22 3 27 15 22 8 -3 12 -2 9 4 -3 5 0 16 7 24 13 15 28 21 28 11z m498 -55 c1
-47 -1 -60 -13 -60 -17 0 -21 35 -5 45 6 3 7 17 4 30 -5 20 0 45 10 45 1 0 3
-27 4 -60z m53 -77 c12 -14 12 -15 0 -9 -10 7 -12 3 -6 -14 5 -14 3 -20 -3
-16 -6 3 -13 -2 -15 -11 -3 -12 -5 -8 -6 9 -1 24 7 58 14 58 1 0 9 -8 16 -17z
m-51 -45 c-1 -28 3 -107 15 -293 1 -22 7 -103 13 -180 25 -324 19 -1161 -8
-1189 -5 -5 -6 84 -2 200 12 359 4 746 -19 969 -21 195 -33 472 -23 508 9 29
25 19 24 -15z m-45 -52 c-1 -29 -8 -62 -14 -72 -9 -15 -10 -9 -6 31 12 104 25
130 20 41z m204 -43 c0 -31 -2 -34 -9 -18 -7 17 -9 17 -9 3 -1 -10 -8 -18 -16
-18 -8 0 -15 -4 -15 -10 0 -5 -4 -10 -9 -10 -5 0 -8 14 -7 30 1 22 9 35 26 44
37 21 40 19 39 -21z m-1 -125 c-2 -67 -6 -83 -19 -86 -22 -4 -34 29 -15 40 9
5 13 15 9 24 -5 13 -7 13 -14 2 -15 -23 -10 29 5 67 25 60 37 43 34 -47z
m-828 -57 c0 -5 -9 -19 -20 -32 l-21 -24 16 33 c15 31 25 41 25 23z m796 -145
c0 -35 -4 -46 -19 -50 -13 -3 -17 0 -13 10 3 8 0 14 -7 14 -7 0 -4 5 6 11 9 5
17 21 17 34 0 14 4 25 8 25 5 0 9 -20 8 -44z m4 -106 c0 -22 -4 -40 -9 -40 -5
0 -11 -10 -14 -22 -4 -12 -9 -19 -12 -16 -4 3 -2 16 5 27 6 12 7 21 1 21 -5 0
-7 10 -3 22 3 14 2 19 -6 14 -16 -9 -15 7 0 22 24 24 38 13 38 -28z m7 -172
c-3 -8 -6 -5 -6 6 -1 11 2 17 5 13 3 -3 4 -12 1 -19z m3 -38 c0 -5 -5 -10 -11
-10 -5 0 -7 5 -4 10 3 6 8 10 11 10 2 0 4 -4 4 -10z"/>
<path d="M5020 5191 c5 -11 7 -26 4 -35 -4 -11 0 -13 15 -9 27 7 27 21 -1 44
-27 24 -31 24 -18 0z"/>
<path d="M2990 6460 c8 -5 20 -10 25 -10 6 0 3 5 -5 10 -8 5 -19 10 -25 10 -5
0 -3 -5 5 -10z"/>
<path d="M3530 6411 c-12 -24 -13 -34 -1 -27 9 6 22 46 15 46 -2 0 -8 -9 -14
-19z"/>
<path d="M3511 6344 c0 -11 3 -14 6 -6 3 7 2 16 -1 19 -3 4 -6 -2 -5 -13z"/>
<path d="M4745 6160 c-3 -5 1 -10 10 -10 9 0 13 5 10 10 -3 6 -8 10 -10 10 -2
0 -7 -4 -10 -10z"/>
<path d="M3016 6120 c-39 -43 -89 -137 -80 -151 11 -19 29 -8 30 19 1 25 30
99 43 112 19 17 54 60 49 60 -3 0 -22 -18 -42 -40z"/>
<path d="M4705 6150 c3 -5 8 -10 11 -10 2 0 4 5 4 10 0 6 -5 10 -11 10 -5 0
-7 -4 -4 -10z"/>
<path d="M3215 6140 c-3 -5 -1 -10 4 -10 6 0 11 5 11 10 0 6 -2 10 -4 10 -3 0
-8 -4 -11 -10z"/>
<path d="M4712 6110 c0 -14 2 -19 5 -12 2 6 2 18 0 25 -3 6 -5 1 -5 -13z"/>
<path d="M4766 6101 c-4 -5 -2 -20 3 -33 9 -21 10 -21 10 10 1 32 -3 39 -13
23z"/>
<path d="M5410 6000 c60 -15 69 -15 72 -5 2 6 -21 11 -52 12 -49 1 -51 0 -20
-7z"/>
<path d="M5510 5990 c8 -5 22 -9 30 -9 10 0 8 3 -5 9 -27 12 -43 12 -25 0z"/>
<path d="M5045 5970 c-3 -5 -1 -10 4 -10 6 0 11 5 11 10 0 6 -2 10 -4 10 -3 0
-8 -4 -11 -10z"/>
<path d="M5344 5964 c3 -9 6 -18 6 -21 0 -2 7 2 15 11 20 20 19 26 -6 26 -15
0 -19 -4 -15 -16z"/>
<path d="M5574 5965 c11 -8 22 -12 25 -9 6 6 -19 24 -34 24 -5 -1 -1 -7 9 -15z"/>
<path d="M5510 5960 c0 -7 81 -42 87 -37 1 2 -18 13 -42 24 -25 11 -45 17 -45
13z"/>
<path d="M4965 5936 c-34 -15 -75 -56 -56 -56 18 0 47 17 77 45 30 28 24 31
-21 11z"/>
<path d="M5610 5916 c0 -2 7 -7 16 -10 8 -3 12 -2 9 4 -6 10 -25 14 -25 6z"/>
<path d="M4290 5890 c0 -5 5 -10 11 -10 5 0 7 5 4 10 -3 6 -8 10 -11 10 -2 0
-4 -4 -4 -10z"/>
<path d="M4325 5880 c-3 -5 -1 -10 4 -10 6 0 11 5 11 10 0 6 -2 10 -4 10 -3 0
-8 -4 -11 -10z"/>
<path d="M4780 5876 c0 -8 4 -17 9 -20 5 -4 7 3 4 14 -6 23 -13 26 -13 6z"/>
<path d="M4836 5835 c-25 -26 -46 -54 -45 -63 0 -14 3 -12 16 6 8 12 20 22 25
22 12 0 32 20 47 49 21 39 5 34 -43 -14z"/>
<path d="M3801 5791 c-8 -5 -20 -7 -28 -4 -7 3 -13 0 -13 -6 0 -7 11 -10 28
-7 15 2 36 5 47 5 17 1 17 3 5 11 -18 12 -21 12 -39 1z"/>
<path d="M2568 5773 c7 -3 16 -2 19 1 4 3 -2 6 -13 5 -11 0 -14 -3 -6 -6z"/>
<path d="M2495 5760 c-3 -5 1 -10 9 -10 9 0 16 5 16 10 0 6 -4 10 -9 10 -6 0
-13 -4 -16 -10z"/>
<path d="M3590 5745 c-14 -8 -35 -19 -48 -25 -13 -5 -43 -24 -67 -40 -24 -17
-47 -30 -50 -30 -12 0 -155 -121 -155 -131 0 -13 13 -5 70 40 70 56 171 124
176 118 3 -3 -21 -22 -53 -44 -57 -38 -227 -173 -271 -216 -30 -29 -95 -133
-99 -159 -5 -29 12 -14 41 38 37 67 133 175 201 227 33 25 85 64 115 87 30 24
74 52 98 63 23 12 42 26 42 33 0 6 12 15 28 20 22 6 24 8 8 12 -15 3 -16 6 -5
13 23 15 -4 10 -31 -6z"/>
<path d="M3665 5750 c-13 -6 -15 -9 -5 -9 8 0 22 4 30 9 18 12 2 12 -25 0z"/>
<path d="M2338 5733 c7 -3 16 -2 19 1 4 3 -2 6 -13 5 -11 0 -14 -3 -6 -6z"/>
<path d="M2727 5720 c3 -11 9 -17 14 -14 14 8 10 34 -5 34 -9 0 -12 -7 -9 -20z"/>
<path d="M3745 5730 c3 -5 8 -10 11 -10 2 0 4 5 4 10 0 6 -5 10 -11 10 -5 0
-7 -4 -4 -10z"/>
<path d="M3671 5719 c-40 -16 -17 -20 25 -5 22 8 30 15 19 15 -11 0 -31 -5
-44 -10z"/>
<path d="M2810 5706 c0 -8 -3 -22 -6 -31 -4 -10 -2 -15 7 -13 17 4 28 28 22
46 -7 17 -23 15 -23 -2z"/>
<path d="M3610 5700 c-8 -5 -10 -10 -5 -10 6 0 17 5 25 10 8 5 11 10 5 10 -5
0 -17 -5 -25 -10z"/>
<path d="M4045 5680 c-3 -5 -1 -10 4 -10 6 0 11 5 11 10 0 6 -2 10 -4 10 -3 0
-8 -4 -11 -10z"/>
<path d="M3760 5640 c-13 -8 -12 -10 3 -10 9 0 17 5 17 10 0 12 -1 12 -20 0z"/>
<path d="M2543 5613 c4 -3 1 -13 -6 -21 -10 -13 -9 -15 6 -9 10 4 20 7 23 7 2
0 1 7 -2 15 -4 8 -11 15 -17 15 -6 0 -7 -3 -4 -7z"/>
<path d="M2762 5600 c-7 -11 -8 -20 -3 -20 9 0 24 30 18 36 -1 2 -8 -6 -15
-16z"/>
<path d="M3645 5594 c-22 -13 -35 -24 -28 -24 18 0 63 22 63 31 0 4 8 10 18
12 11 3 12 5 2 5 -8 0 -33 -11 -55 -24z"/>
<path d="M2625 5590 c27 -12 43 -12 25 0 -8 5 -22 9 -30 9 -10 0 -8 -3 5 -9z"/>
<path d="M2674 5572 c3 -5 2 -41 -3 -80 -9 -89 3 -95 18 -9 14 81 14 84 -5 91
-8 3 -13 2 -10 -2z"/>
<path d="M2465 5563 c-11 -3 -29 -13 -40 -23 -11 -10 -31 -23 -43 -30 -13 -6
-21 -14 -19 -17 3 -3 16 2 29 11 25 18 42 21 33 7 -3 -5 -1 -12 5 -16 5 -3 10
3 10 14 0 10 12 29 28 40 15 11 25 20 22 20 -3 -1 -14 -3 -25 -6z"/>
<path d="M3575 5560 c3 -5 -1 -10 -9 -10 -9 0 -16 -5 -16 -11 0 -6 7 -8 16 -5
9 3 18 6 20 6 2 0 4 7 4 15 0 8 -5 15 -11 15 -5 0 -7 -4 -4 -10z"/>
<path d="M3696 5561 c-4 -5 3 -7 14 -4 23 6 26 13 6 13 -8 0 -17 -4 -20 -9z"/>
<path d="M3650 5540 c-9 -6 -10 -10 -3 -10 6 0 15 5 18 10 8 12 4 12 -15 0z"/>
<path d="M5327 5530 c-3 -11 -2 -22 2 -24 4 -3 8 6 9 20 2 29 -4 31 -11 4z"/>
<path d="M3515 5520 c-3 -5 1 -10 9 -10 9 0 16 5 16 10 0 6 -4 10 -9 10 -6 0
-13 -4 -16 -10z"/>
<path d="M5391 5514 c0 -11 3 -14 6 -6 3 7 2 16 -1 19 -3 4 -6 -2 -5 -13z"/>
<path d="M5690 5470 c0 -16 3 -30 8 -30 4 0 7 14 7 30 0 17 -3 30 -7 30 -5 0
-8 -13 -8 -30z"/>
<path d="M3529 5473 c-13 -17 -13 -17 6 -3 11 8 22 16 24 17 2 2 0 3 -6 3 -6
0 -17 -8 -24 -17z"/>
<path d="M2285 5431 c-48 -46 -75 -109 -54 -122 8 -5 28 -8 44 -7 l30 1 -27 4
c-46 7 -38 41 30 132 31 41 25 39 -23 -8z"/>
<path d="M2421 5443 c0 -6 -4 -20 -7 -30 -5 -14 -4 -15 5 -7 7 7 11 20 8 30
-3 11 -5 14 -6 7z"/>
<path d="M4343 5435 c0 -8 4 -12 9 -9 5 3 6 10 3 15 -9 13 -12 11 -12 -6z"/>
<path d="M2451 5401 c-7 -12 -17 -18 -26 -15 -11 5 -15 -1 -15 -19 0 -14 -5
-29 -10 -32 -6 -4 -8 -11 -4 -16 3 -5 9 -7 14 -4 12 7 61 97 56 102 -2 3 -9
-5 -15 -16z"/>
<path d="M2641 5383 c-6 -14 -9 -28 -7 -31 3 -3 9 4 13 14 3 10 11 22 16 25 6
4 5 9 0 12 -6 4 -15 -5 -22 -20z"/>
<path d="M4280 5385 c-7 -9 -8 -15 -2 -15 5 0 12 7 16 15 3 8 4 15 2 15 -2 0
-9 -7 -16 -15z"/>
<path d="M3305 5314 c-16 -14 -45 -39 -64 -57 -19 -17 -43 -31 -53 -32 -10 -1
-25 -10 -33 -21 -8 -11 -15 -14 -15 -6 0 17 -20 15 -20 -3 0 -8 -8 -15 -18
-15 -10 0 -29 -11 -42 -25 -13 -14 -28 -25 -34 -24 -24 3 -39 -1 -32 -8 4 -5
12 -9 17 -9 5 -1 14 -2 19 -3 16 -2 12 -23 -24 -115 -19 -48 -42 -118 -51
-154 -22 -92 -47 -175 -56 -187 -16 -22 -20 -101 -6 -145 11 -39 11 -51 -2
-85 -8 -22 -18 -42 -22 -45 -3 -3 -9 -12 -13 -20 -3 -8 -4 4 -1 28 3 25 1 42
-5 42 -5 0 -10 -13 -10 -28 0 -16 -6 -51 -14 -78 -8 -27 -22 -119 -31 -204 -9
-85 -21 -195 -26 -245 -6 -49 -9 -113 -7 -142 3 -57 -8 -59 -15 -3 -3 19 -3
-17 -1 -80 5 -116 14 -178 39 -260 8 -26 12 -69 9 -102 -3 -42 0 -60 11 -71
21 -22 19 -63 -4 -79 -11 -8 -23 -27 -27 -43 -4 -17 -13 -34 -21 -40 -7 -5
-14 -27 -15 -47 -2 -21 -7 -38 -11 -38 -5 0 -5 -5 -2 -10 4 -6 2 -16 -3 -23
-9 -11 -23 -81 -23 -117 -1 -8 -3 -22 -7 -30 -3 -8 -7 -22 -8 -30 -1 -8 -12
-64 -23 -125 -11 -60 -23 -134 -28 -164 -8 -51 -10 -56 -53 -78 -24 -13 -49
-31 -54 -41 -5 -9 -32 -40 -60 -68 -76 -78 -190 -204 -199 -221 -24 -41 17 -6
204 177 226 222 243 238 277 261 49 34 145 135 161 169 22 50 58 93 70 85 6
-3 8 0 5 8 -3 8 3 20 12 28 15 12 17 12 12 -1 -4 -10 2 -15 17 -16 17 -1 21 3
18 17 -4 12 10 36 41 71 26 29 75 91 109 138 35 47 73 89 85 95 12 5 24 16 27
24 4 11 3 12 -10 1 -12 -10 -15 -10 -15 2 0 17 260 169 330 193 24 9 59 25 78
35 24 14 34 16 37 7 10 -34 18 -97 17 -137 -2 -32 1 -41 9 -33 28 28 1 223
-30 223 -6 0 -11 4 -11 10 0 6 29 8 73 5 39 -2 88 -1 107 3 24 6 -21 10 -145
15 -114 4 -202 13 -240 23 -33 9 -73 16 -88 16 -22 -1 -44 14 -95 66 -135 136
-249 258 -267 287 -11 17 -22 32 -26 35 -14 11 -77 118 -93 159 -21 55 -28
152 -14 211 5 25 33 91 61 148 40 79 56 102 71 102 20 0 20 1 -2 16 -25 17
-62 84 -62 112 0 20 44 65 73 75 12 5 20 0 26 -15 7 -18 9 -19 14 -4 4 9 7 18
7 21 0 3 14 42 31 87 28 77 29 83 13 95 -14 10 -14 13 -3 13 8 0 22 21 32 48
12 33 28 54 53 70 20 12 39 21 41 18 2 -2 0 -20 -5 -40 -8 -29 -8 -36 3 -36 8
0 18 8 24 17 5 10 11 16 13 13 2 -3 11 -17 21 -31 16 -27 17 -27 51 -11 19 9
33 19 30 24 -3 4 -13 4 -22 -1 -13 -7 -25 -2 -49 19 l-31 28 21 41 c11 23 27
41 34 41 7 0 13 9 13 21 0 21 70 117 96 132 24 14 15 26 -10 14 -38 -21 -84
-68 -123 -129 -20 -32 -40 -58 -44 -58 -4 0 -10 11 -13 25 -4 14 -11 25 -17
25 -9 0 -7 -16 8 -57 3 -7 -3 -16 -13 -19 -11 -4 -34 -18 -51 -31 -18 -13 -33
-19 -33 -13 0 6 -4 8 -10 5 -14 -9 -12 7 5 47 8 20 34 56 58 81 31 31 41 49
34 56 -15 15 9 65 49 105 51 51 43 66 -11 20z m-112 -135 c-4 -15 -9 -17 -17
-9 -8 8 -7 13 4 20 8 5 16 10 17 10 0 0 -1 -9 -4 -21z m-23 -19 c0 -5 -4 -10
-10 -10 -5 0 -10 5 -10 10 0 6 5 10 10 10 6 0 10 -4 10 -10z m-35 -10 c-3 -5
-11 -10 -16 -10 -6 0 -7 5 -4 10 3 6 11 10 16 10 6 0 7 -4 4 -10z m8 -52 c-9
-44 -29 -82 -38 -69 -3 6 -11 11 -17 11 -7 0 -6 -6 2 -15 8 -9 8 -15 2 -15 -6
0 -14 9 -17 21 -4 12 -13 18 -20 15 -11 -4 -11 1 -1 31 10 29 19 37 42 40 16
3 31 6 33 9 13 13 20 0 14 -28z m-240 -735 c-7 -3 -13 -9 -13 -15 0 -11 -48
-118 -53 -118 -2 0 -4 14 -5 30 -2 23 7 42 35 75 20 25 39 42 42 38 3 -3 0 -8
-6 -10z m107 -499 c0 -70 -51 -344 -78 -414 l-9 -25 -7 33 c-4 17 -5 44 -2 60
3 15 8 54 11 87 11 129 33 294 40 306 6 9 13 6 27 -10 10 -13 18 -29 18 -37z
m42 -84 c6 0 7 -15 3 -41 -5 -29 -4 -40 4 -35 6 4 11 17 11 30 0 34 11 38 32
11 18 -23 18 -24 -7 -69 -14 -25 -23 -46 -20 -46 3 0 -2 -14 -12 -31 -18 -30
-18 -30 -24 -7 -5 20 -7 18 -14 -15 -11 -57 -104 -286 -105 -258 0 13 13 74
29 135 17 61 40 163 51 226 26 135 32 155 37 123 3 -13 9 -23 15 -23z m-285
-182 c-2 -13 -4 -5 -4 17 -1 22 1 32 4 23 2 -10 2 -28 0 -40z m60 -340 c-3 -8
-6 -5 -6 6 -1 11 2 17 5 13 3 -3 4 -12 1 -19z m3 -153 c0 -23 -45 -167 -73
-235 -8 -19 -12 -41 -10 -48 3 -7 0 -18 -6 -26 -6 -7 -20 -59 -31 -117 -12
-57 -23 -111 -25 -119 -2 -8 -4 -27 -4 -41 -1 -14 -8 -34 -16 -45 -14 -17 -15
-15 -9 31 6 55 116 511 141 587 16 49 33 56 33 13z m34 -50 c3 -8 1 -15 -4
-15 -6 0 -10 7 -10 15 0 8 2 15 4 15 2 0 6 -7 10 -15z"/>
<path d="M3042 3650 c0 -14 2 -19 5 -12 2 6 2 18 0 25 -3 6 -5 1 -5 -13z"/>
<path d="M2587 5310 c-9 -11 -13 -20 -8 -20 11 0 35 29 29 35 -2 2 -12 -4 -21
-15z"/>
<path d="M4875 5270 c3 -5 8 -10 11 -10 2 0 4 5 4 10 0 6 -5 10 -11 10 -5 0
-7 -4 -4 -10z"/>
<path d="M3559 5266 c-3 -4 0 -32 7 -64 16 -69 18 -112 3 -112 -5 0 -7 -4 -4
-10 3 -5 -1 -10 -9 -10 -14 0 -18 -6 -15 -26 0 -4 -5 -11 -13 -15 -7 -5 -8 -9
-3 -9 13 0 43 20 30 20 -14 0 17 20 33 20 28 0 9 -32 -30 -50 -49 -21 -41 -25
12 -6 29 11 39 11 57 -1 19 -13 21 -13 17 4 -4 15 12 25 88 57 51 21 116 49
143 61 28 13 69 31 92 40 23 9 44 23 47 31 7 19 -1 18 -31 -6 -14 -11 -36 -20
-49 -20 -12 0 -25 -4 -29 -9 -3 -5 -18 -12 -34 -16 -16 -3 -35 -13 -42 -21 -6
-8 -29 -14 -49 -14 -49 0 -77 -10 -59 -21 8 -5 0 -13 -26 -23 -50 -21 -62 -20
-69 7 -10 37 -7 47 14 47 11 0 20 5 20 10 0 6 -10 8 -24 4 -20 -5 -24 -1 -30
28 -9 44 -39 111 -47 104z"/>
<path d="M3076 5215 c4 -8 8 -15 10 -15 2 0 4 7 4 15 0 8 -4 15 -10 15 -5 0
-7 -7 -4 -15z"/>
<path d="M4540 5208 c-12 -22 -12 -22 6 -6 10 10 15 20 12 24 -4 3 -12 -5 -18
-18z"/>
<path d="M3026 5193 c-6 -14 -5 -15 5 -6 7 7 10 15 7 18 -3 3 -9 -2 -12 -12z"/>
<path d="M3047 5188 c-9 -31 -2 -33 11 -3 6 14 8 25 3 25 -5 0 -11 -10 -14
-22z"/>
<path d="M4530 5153 c-30 -25 -60 -54 -66 -65 -6 -11 -21 -25 -34 -31 -12 -7
-27 -22 -31 -35 l-9 -23 28 21 c62 49 190 181 175 179 -5 0 -33 -21 -63 -46z"/>
<path d="M4330 5140 c-14 -11 -20 -20 -14 -20 6 0 19 9 29 20 23 25 17 25 -15
0z"/>
<path d="M4075 5110 c3 -6 -5 -10 -19 -10 -32 0 -56 -10 -56 -23 0 -7 4 -7 12
1 7 7 19 12 28 12 8 0 -3 -11 -24 -24 -22 -13 -46 -22 -53 -19 -7 3 -13 -2
-13 -11 0 -9 -6 -16 -14 -16 -8 0 -17 -7 -20 -16 -3 -9 -2 -12 5 -9 18 12 5
-40 -16 -62 -26 -27 -103 -53 -163 -54 -26 -1 -60 -5 -77 -9 -23 -6 -14 -8 38
-9 115 -2 375 92 509 184 27 19 57 37 68 40 11 4 20 13 20 20 0 10 -15 6 -52
-16 -29 -17 -58 -35 -64 -40 -7 -5 -26 -11 -43 -12 -17 -1 -33 -8 -36 -14 -6
-17 -15 -16 -39 2 -19 14 -18 16 8 55 21 32 23 40 11 40 -9 0 -13 -4 -10 -10z
m-95 -149 c0 -5 -7 -11 -15 -15 -15 -5 -20 5 -8 17 9 10 23 9 23 -2z"/>
<path d="M3397 5103 c-3 -5 10 -9 29 -10 19 -1 34 3 34 8 0 11 -57 12 -63 2z"/>
<path d="M3485 5080 c-13 -6 -15 -9 -5 -9 8 0 22 4 30 9 18 12 2 12 -25 0z"/>
<path d="M4300 5063 c0 -5 -12 -17 -27 -27 -14 -11 -23 -14 -19 -8 4 7 2 12
-3 12 -6 0 -12 -4 -12 -10 -1 -5 -2 -14 -3 -19 0 -5 -5 -13 -10 -18 -5 -5 -6
-3 -2 5 16 27 -12 10 -54 -34 -39 -40 -197 -144 -218 -144 -5 0 -23 -11 -40
-24 -27 -19 -30 -25 -16 -30 9 -4 22 0 28 8 22 27 134 79 159 72 14 -3 32 0
43 9 10 8 14 15 7 15 -6 0 -15 -4 -18 -10 -3 -5 -11 -10 -17 -10 -6 0 -1 11
12 25 23 24 47 35 35 15 -10 -16 41 6 88 39 57 39 110 66 122 62 6 -1 7 1 2 5
-4 4 0 16 10 26 26 29 6 21 -50 -20 -58 -43 -95 -65 -58 -34 16 13 21 24 16
33 -5 8 -4 11 0 6 5 -4 17 5 27 20 20 32 22 43 8 43 -5 0 -10 -3 -10 -7z
m-115 -153 c-3 -5 -12 -10 -18 -10 -7 0 -6 4 3 10 19 12 23 12 15 0z"/>
<path d="M4657 5007 c-6 -59 -20 -108 -69 -234 -15 -40 -26 -53 -42 -54 -17
-1 -17 -2 -3 -6 9 -2 17 -6 17 -8 0 -8 -64 -163 -82 -198 -11 -22 -17 -41 -15
-43 3 -3 24 17 47 43 72 81 146 204 160 267 7 30 5 34 -11 31 -11 -2 -24 -7
-30 -11 -8 -5 -8 -1 0 14 6 11 14 22 18 24 5 3 2 3 -5 2 -7 -2 -1 12 13 30 17
23 22 36 15 41 -8 5 -9 32 -4 86 3 43 4 79 2 79 -3 0 -8 -28 -11 -63z m-33
-251 c-3 -9 -10 -16 -15 -16 -5 0 -4 9 3 20 14 22 21 20 12 -4z"/>
<path d="M3362 5046 c8 -9 19 -11 29 -5 9 4 20 5 24 1 5 -4 5 -1 1 6 -4 6 -21
12 -37 12 -25 0 -28 -2 -17 -14z"/>
<path d="M3854 5035 c-16 -12 -17 -14 -3 -15 9 0 19 7 23 15 7 19 5 19 -20 0z"/>
<path d="M4070 5041 c0 -10 19 -25 25 -20 1 2 -3 10 -11 17 -8 7 -14 8 -14 3z"/>
<path d="M2940 5008 c-7 -18 -25 -62 -41 -98 -41 -97 -128 -458 -150 -625 -14
-110 -24 -515 -12 -515 6 0 10 32 10 78 0 42 3 104 7 137 19 164 38 305 48
345 6 25 12 72 12 105 1 33 5 65 9 71 3 6 7 26 9 45 1 19 5 39 9 44 4 6 8 26
10 45 2 19 7 40 12 47 5 7 6 16 3 21 -9 14 25 113 41 119 9 4 11 8 4 12 -12 8
14 103 42 158 19 37 21 43 8 43 -5 0 -14 -15 -21 -32z m-159 -671 c-10 -9 -11
-8 -5 6 3 10 9 15 12 12 3 -3 0 -11 -7 -18z"/>
<path d="M4701 5004 c0 -11 3 -14 6 -6 3 7 2 16 -1 19 -3 4 -6 -2 -5 -13z"/>
<path d="M3658 4942 c-54 -36 -96 -68 -93 -70 4 -5 205 125 205 133 0 11 -18
1 -112 -63z"/>
<path d="M3470 4980 c-18 -12 -2 -12 25 0 13 6 15 9 5 9 -8 0 -22 -4 -30 -9z"/>
<path d="M4696 4948 c-3 -13 -8 -40 -11 -61 -3 -21 -9 -45 -12 -53 -3 -8 -1
-14 5 -14 5 0 13 12 17 27 5 21 8 24 16 12 6 -9 9 7 9 49 0 60 -15 85 -24 40z"/>
<path d="M2357 4943 c-2 -4 -1 -17 3 -28 7 -19 8 -19 15 -2 8 18 -9 46 -18 30z"/>
<path d="M2133 4932 c-6 -4 -15 -20 -18 -35 -5 -18 -14 -27 -29 -28 -20 0 -20
-1 2 -10 14 -5 20 -14 16 -20 -9 -16 -12 -259 -3 -259 4 0 11 -20 15 -45 5
-34 2 -51 -11 -71 -9 -14 -14 -28 -11 -31 3 -3 8 2 12 11 7 19 30 21 37 4 2
-7 8 -9 13 -5 5 4 2 12 -5 16 -9 6 -11 18 -7 35 4 17 1 35 -9 49 -20 28 -19
47 3 63 15 12 15 13 1 14 -9 0 -19 6 -22 14 -11 27 3 190 18 213 9 13 11 23 6
23 -14 0 -1 43 17 58 13 10 13 12 1 12 -8 0 -19 -4 -26 -8z"/>
<path d="M2223 4912 c10 -10 17 -24 17 -30 0 -13 13 -16 23 -6 3 3 -6 17 -20
30 -31 28 -43 32 -20 6z"/>
<path d="M1955 4896 c11 -7 40 -16 65 -20 l45 -7 -55 21 c-63 23 -83 26 -55 6z"/>
<path d="M3377 4868 c9 -24 19 -47 23 -53 4 -5 12 -25 18 -42 16 -48 -2 -43
-78 22 -36 30 -71 55 -77 55 -7 0 -13 5 -13 10 0 6 -7 10 -15 10 -8 0 -15 -4
-15 -10 0 -5 7 -10 15 -10 14 0 33 -46 22 -56 -2 -3 -19 7 -36 21 -26 23 -29
30 -20 47 12 22 6 34 -10 23 -12 -7 -14 -44 -5 -69 7 -18 195 -146 213 -146 6
0 11 4 11 9 0 5 6 11 14 14 11 4 13 0 11 -15 -3 -12 4 -27 18 -38 21 -18 22
-18 29 2 5 11 3 28 -2 38 -15 28 -12 36 6 14 15 -19 16 -19 9 1 -4 11 -12 35
-17 54 -11 39 -28 68 -72 124 -39 49 -50 47 -29 -5z m61 -70 c26 -44 38 -83
22 -73 -10 6 -50 87 -50 101 0 11 10 1 28 -28z m-128 -28 c0 -5 -5 -10 -11
-10 -5 0 -7 5 -4 10 3 6 8 10 11 10 2 0 4 -4 4 -10z m61 -57 c13 -16 12 -17
-3 -4 -17 13 -22 21 -14 21 2 0 10 -8 17 -17z"/>
<path d="M3507 4887 c-3 -9 -2 -17 3 -17 6 0 10 -6 10 -12 0 -7 11 -26 25 -43
l26 -30 -20 40 c-16 30 -18 41 -8 47 8 5 7 8 -5 8 -9 0 -18 5 -20 12 -3 7 -7
6 -11 -5z"/>
<path d="M5257 4854 c-4 -4 -7 -14 -7 -23 0 -11 3 -12 11 -4 6 6 10 16 7 23
-2 6 -7 8 -11 4z"/>
<path d="M4045 4827 c-11 -6 -42 -22 -70 -34 -27 -12 -43 -22 -35 -23 17 0
140 56 140 65 0 8 -13 5 -35 -8z"/>
<path d="M4076 4792 c-16 -27 114 -69 168 -54 29 8 28 9 -33 31 -76 28 -126
36 -135 23z"/>
<path d="M2203 4645 c-8 -9 -9 -16 -3 -20 6 -3 10 -4 10 0 0 12 60 -26 70 -45
6 -12 12 -38 13 -60 0 -21 5 -37 9 -34 4 3 1 -8 -7 -23 -17 -32 -19 -53 -5
-53 13 0 31 73 28 116 -2 27 -13 47 -50 85 -26 27 -49 49 -50 49 -2 -1 -9 -7
-15 -15z"/>
<path d="M3150 4645 c0 -3 9 -22 20 -42 18 -34 20 -35 20 -13 0 14 -9 33 -20
43 -11 9 -20 15 -20 12z"/>
<path d="M3077 4633 c-10 -9 -9 -23 1 -23 5 0 9 7 9 15 0 17 -1 18 -10 8z"/>
<path d="M3985 4590 c-4 -6 7 -10 27 -9 27 0 30 2 13 9 -27 12 -33 12 -40 0z"/>
<path d="M4762 4564 c-5 -22 -17 -70 -27 -109 -25 -103 -28 -123 -17 -105 15
24 64 241 57 248 -2 2 -8 -13 -13 -34z"/>
<path d="M4724 4556 c-3 -8 -4 -27 -2 -43 3 -23 5 -20 9 15 5 43 2 53 -7 28z"/>
<path d="M2161 4544 c0 -11 3 -14 6 -6 3 7 2 16 -1 19 -3 4 -6 -2 -5 -13z"/>
<path d="M5470 4551 c0 -6 5 -13 10 -16 6 -3 10 1 10 9 0 9 -4 16 -10 16 -5 0
-10 -4 -10 -9z"/>
<path d="M2018 4522 c-29 -30 -58 -84 -58 -105 0 -15 41 -47 61 -47 6 0 2 8
-9 18 -28 24 -36 57 -17 75 8 9 15 20 15 24 0 5 9 19 21 32 12 12 19 24 17 27
-3 2 -16 -9 -30 -24z"/>
<path d="M3960 4500 c0 -5 7 -7 15 -4 13 5 13 3 0 -22 -16 -32 -18 -30 80 -84
33 -18 67 -38 75 -44 48 -38 117 -52 141 -30 22 19 26 5 8 -28 -9 -16 -8 -19
3 -15 7 2 12 9 11 15 -2 6 4 9 12 6 8 -4 15 -1 15 5 0 6 -4 11 -10 11 -5 0
-10 5 -10 11 0 6 7 8 16 5 33 -13 2 13 -60 49 -53 31 -62 40 -52 50 8 8 29 12
52 9 l39 -4 -32 15 c-27 12 -265 65 -294 65 -5 0 -9 -4 -9 -10z m54 -35 c-4
-8 -8 -15 -10 -15 -2 0 -4 7 -4 15 0 8 4 15 10 15 5 0 7 -7 4 -15z m30 -28
c-3 -9 -12 -13 -21 -10 -14 5 -13 8 2 20 22 15 28 12 19 -10z m94 6 c16 -4 20
-8 11 -13 -8 -5 6 -17 40 -34 28 -15 50 -30 47 -34 -2 -4 7 -8 21 -9 14 0 29
-6 34 -12 5 -6 6 -9 3 -6 -4 3 -13 0 -21 -6 -10 -9 -13 -7 -13 6 0 17 -1 17
-19 1 -15 -14 -20 -14 -29 -3 -8 10 -8 17 -1 24 8 8 7 13 -1 18 -7 4 -14 -1
-17 -14 -3 -12 -9 -21 -14 -21 -15 0 -21 21 -9 35 7 8 9 15 5 15 -4 0 -14 -8
-20 -17 -13 -17 -14 -17 -33 1 -12 10 -18 24 -15 32 3 8 -1 14 -11 14 -10 0
-13 -5 -9 -17 6 -17 6 -17 -11 0 -35 35 -1 57 62 40z"/>
<path d="M4323 4416 c-9 -11 -4 -15 23 -24 28 -8 38 -7 56 7 14 12 16 18 7 18
-8 0 -27 3 -44 6 -19 4 -34 2 -42 -7z"/>
<path d="M4970 4401 c0 -10 -8 -22 -17 -25 -14 -6 -15 -9 -4 -15 9 -6 12 -18
7 -37 -4 -19 -3 -24 3 -14 10 18 25 110 17 110 -3 0 -6 -9 -6 -19z"/>
<path d="M4344 4315 c3 -9 6 -23 6 -32 0 -9 6 -13 15 -9 10 3 15 -1 15 -14 0
-22 31 -34 66 -26 23 6 35 36 14 36 -5 0 -10 -7 -10 -15 0 -22 -38 -18 -45 5
-3 11 -4 24 -1 28 3 5 -11 16 -31 26 -32 15 -35 15 -29 1z"/>
<path d="M5252 4155 c0 -16 2 -22 5 -12 2 9 2 23 0 30 -3 6 -5 -1 -5 -18z"/>
<path d="M4781 4134 c0 -11 3 -14 6 -6 3 7 2 16 -1 19 -3 4 -6 -2 -5 -13z"/>
<path d="M3297 4076 c-20 -20 -37 -41 -37 -46 0 -13 2 -12 37 1 26 10 115 26
193 34 65 7 162 -52 196 -118 8 -15 17 -58 20 -95 7 -83 14 -94 14 -21 0 122
-31 169 -153 230 -64 32 -92 41 -156 46 l-78 6 -36 -37z m68 9 c-50 -18 -53
-18 -29 0 10 8 30 14 44 14 20 0 17 -3 -15 -14z m82 -11 c-3 -3 -12 -4 -19 -1
-8 3 -5 6 6 6 11 1 17 -2 13 -5z"/>
<path d="M4172 4050 c0 -14 2 -19 5 -12 2 6 2 18 0 25 -3 6 -5 1 -5 -13z"/>
<path d="M4605 4040 c3 -5 8 -10 11 -10 2 0 4 5 4 10 0 6 -5 10 -11 10 -5 0
-7 -4 -4 -10z"/>
<path d="M5209 4020 c-3 -20 -4 -25 -13 -38 -8 -13 -1 -30 8 -21 7 7 17 69 11
69 -3 0 -6 -4 -6 -10z"/>
<path d="M3241 4004 c0 -11 3 -14 6 -6 3 7 2 16 -1 19 -3 4 -6 -2 -5 -13z"/>
<path d="M4181 4009 c-1 -8 6 -24 15 -35 15 -19 15 -19 6 1 -5 11 -12 27 -15
35 -5 13 -6 13 -6 -1z"/>
<path d="M5410 4005 c-6 -8 -10 -19 -8 -24 1 -6 8 1 15 14 13 28 11 31 -7 10z"/>
<path d="M4491 3984 c0 -11 3 -14 6 -6 3 7 2 16 -1 19 -3 4 -6 -2 -5 -13z"/>
<path d="M3223 3955 c-3 -9 -3 -18 -1 -21 3 -3 8 4 11 16 6 23 -1 27 -10 5z"/>
<path d="M2217 3953 c-4 -3 -7 -13 -7 -22 0 -14 2 -14 10 -1 8 13 10 13 10 1
0 -11 3 -12 11 -4 6 6 8 16 5 22 -8 12 -20 14 -29 4z"/>
<path d="M4930 3956 c0 -2 7 -9 15 -16 13 -11 14 -10 9 4 -5 14 -24 23 -24 12z"/>
<path d="M2395 3940 c3 -5 8 -10 11 -10 2 0 4 5 4 10 0 6 -5 10 -11 10 -5 0
-7 -4 -4 -10z"/>
<path d="M4210 3946 c0 -2 7 -7 16 -10 8 -3 12 -2 9 4 -6 10 -25 14 -25 6z"/>
<path d="M2108 3913 c7 -3 16 -2 19 1 4 3 -2 6 -13 5 -11 0 -14 -3 -6 -6z"/>
<path d="M3206 3905 c-3 -8 -1 -15 3 -15 5 0 11 7 15 15 3 8 1 15 -3 15 -5 0
-11 -7 -15 -15z"/>
<path d="M2348 3749 c-9 -6 -7 -9 9 -9 12 0 28 -3 37 -6 9 -3 16 -2 16 4 0 13
-45 21 -62 11z"/>
<path d="M3675 3716 c-29 -45 -79 -68 -137 -63 -26 2 -45 0 -42 -5 10 -15 94
-8 134 12 22 11 47 34 56 51 21 41 14 45 -11 5z"/>
<path d="M2420 3734 c0 -5 12 -20 25 -33 14 -13 25 -29 25 -36 0 -7 7 -26 16
-41 15 -27 15 -27 10 -4 -3 14 -6 30 -6 37 0 6 -16 28 -35 49 -19 20 -35 33
-35 28z"/>
<path d="M2253 3699 c-13 -5 -23 -14 -23 -21 0 -17 -56 -99 -62 -92 -3 3 -4
-9 -2 -26 2 -20 -1 -33 -11 -36 -18 -7 -2 -44 19 -44 9 0 11 10 6 38 -7 42 17
105 49 121 18 10 56 60 49 66 -2 1 -13 -1 -25 -6z"/>
<path d="M2252 3618 c1 -13 8 -25 15 -25 9 0 9 5 1 21 -16 31 -18 32 -16 4z"/>
<path d="M2491 3574 c0 -11 3 -14 6 -6 3 7 2 16 -1 19 -3 4 -6 -2 -5 -13z"/>
<path d="M2276 3554 c-8 -29 -3 -39 13 -29 13 8 15 55 2 55 -5 0 -12 -12 -15
-26z"/>
<path d="M2300 3509 c0 -5 10 -9 22 -9 12 0 18 3 14 7 -10 11 -36 12 -36 2z"/>
<path d="M2488 3268 c-9 -7 -17 -24 -18 -38 -7 -87 13 -112 23 -29 4 28 12 57
18 65 14 17 -2 18 -23 2z"/>
<path d="M3658 3213 c-8 -10 -22 -31 -32 -48 l-17 -30 21 25 c45 54 51 62 47
66 -2 2 -10 -4 -19 -13z"/>
<path d="M3350 3124 c-12 -31 -12 -241 0 -269 5 -13 9 26 9 102 0 67 3 138 7
157 7 42 -2 48 -16 10z"/>
<path d="M2472 3095 c4 -28 1 -51 -8 -64 -12 -17 -12 -19 5 -14 16 4 21 -2 26
-41 6 -39 9 -43 21 -31 17 17 18 36 2 33 -9 -2 -13 10 -13 35 0 20 -3 37 -7
37 -5 0 -8 20 -8 45 0 27 -5 45 -11 45 -8 0 -10 -15 -7 -45z"/>
<path d="M4160 3130 c0 -5 5 -10 10 -10 6 0 10 5 10 10 0 6 -4 10 -10 10 -5 0
-10 -4 -10 -10z"/>
<path d="M2560 3060 c0 -5 8 -10 18 -10 10 0 23 -5 30 -12 7 -7 12 -8 12 -2 0
6 -11 16 -25 22 -32 15 -35 15 -35 2z"/>
<path d="M3593 3033 c9 -2 25 -2 35 0 9 3 1 5 -18 5 -19 0 -27 -2 -17 -5z"/>
<path d="M2636 3007 c3 -10 9 -15 12 -12 3 3 0 11 -7 18 -10 9 -11 8 -5 -6z"/>
<path d="M3690 3010 c8 -5 20 -10 25 -10 6 0 3 5 -5 10 -8 5 -19 10 -25 10 -5
0 -3 -5 5 -10z"/>
<path d="M3510 2990 c-8 -5 -11 -12 -7 -16 4 -4 13 -2 19 4 15 15 7 24 -12 12z"/>
<path d="M3550 2979 c0 -5 5 -7 10 -4 6 3 10 8 10 11 0 2 -4 4 -10 4 -5 0 -10
-5 -10 -11z"/>
<path d="M2384 2945 c-9 -14 -15 -27 -13 -30 3 -2 12 10 21 26 21 36 15 39 -8
4z"/>
<path d="M3795 2934 c-27 -14 -52 -30 -55 -35 -3 -4 -19 3 -34 16 -41 35 -42
31 -5 -15 32 -40 53 -53 43 -26 -4 10 6 20 28 30 30 14 90 56 78 56 -3 0 -27
-12 -55 -26z"/>
<path d="M4660 2950 c0 -5 5 -10 11 -10 5 0 7 5 4 10 -3 6 -8 10 -11 10 -2 0
-4 -4 -4 -10z"/>
<path d="M2642 2930 c0 -14 2 -19 5 -12 2 6 2 18 0 25 -3 6 -5 1 -5 -13z"/>
<path d="M4355 2900 c-10 -11 -13 -20 -8 -20 13 0 38 29 31 35 -3 3 -13 -4
-23 -15z"/>
<path d="M2350 2891 c0 -5 -3 -16 -6 -25 -4 -11 0 -16 14 -16 15 0 18 5 14 25
-4 23 -22 36 -22 16z"/>
<path d="M3178 2872 c-37 -41 -125 -183 -132 -213 -5 -21 -1 -30 20 -44 15 -9
23 -22 20 -31 -4 -11 -2 -12 14 -2 15 10 26 9 55 -5 l36 -17 -58 -68 c-32 -37
-69 -79 -83 -94 -14 -15 -36 -42 -50 -60 -14 -17 -51 -59 -82 -92 -59 -61 -83
-115 -59 -139 8 -8 11 -8 11 1 0 6 24 40 53 74 29 35 87 106 129 159 110 137
208 216 208 168 0 -5 -33 -46 -73 -92 -40 -45 -97 -113 -126 -152 -66 -85
-171 -207 -188 -218 -15 -9 -17 -69 -3 -83 5 -5 12 -53 14 -107 5 -88 19 -147
33 -133 3 3 7 31 10 63 2 32 10 85 18 118 7 33 16 79 19 101 4 31 26 69 86
150 44 60 90 121 103 136 13 14 27 36 33 47 16 36 139 190 152 190 6 1 12 11
12 24 0 30 36 87 55 87 25 0 17 -36 -21 -85 -19 -26 -33 -53 -30 -61 3 -8 12
-71 21 -142 24 -200 46 -335 59 -362 7 -14 18 -50 25 -82 15 -68 34 -77 107
-48 31 12 41 19 27 20 -20 0 -27 15 -63 133 -23 72 -59 186 -80 253 -51 157
-58 201 -36 210 27 10 35 -5 61 -116 28 -112 132 -440 145 -454 5 -5 6 -15 3
-22 -8 -21 48 -17 75 5 29 25 28 40 -8 110 -16 32 -46 98 -65 146 -20 49 -41
95 -46 104 -15 27 -69 165 -65 168 2 2 30 -19 62 -47 33 -27 63 -50 68 -50 6
0 27 -12 48 -27 50 -34 95 -33 126 3 l23 26 -78 32 c-89 37 -247 118 -281 144
-21 16 -22 21 -11 45 10 21 17 26 33 21 40 -12 181 -76 276 -125 87 -44 96
-47 108 -32 17 23 15 68 -4 87 -14 15 -154 61 -258 85 -27 6 -72 23 -101 36
-28 14 -63 25 -78 25 -20 0 -42 21 -109 102 -45 55 -95 114 -109 129 l-27 27
-24 -26z m18 -100 c21 -16 64 -51 94 -79 53 -49 54 -51 41 -77 -8 -14 -20 -26
-26 -26 -27 0 -205 130 -205 150 0 11 40 60 49 60 5 0 26 -13 47 -28z m-259
-774 c-3 -8 -6 -5 -6 6 -1 11 2 17 5 13 3 -3 4 -12 1 -19z"/>
<path d="M3367 2780 c6 -22 23 -38 23 -21 0 17 -12 41 -20 41 -5 0 -6 -9 -3
-20z"/>
<path d="M3520 2650 c8 -5 26 -10 39 -10 32 0 24 6 -19 14 -25 4 -31 3 -20 -4z"/>
<path d="M3142 2245 c-14 -31 -16 -53 -3 -39 9 9 24 64 18 64 -2 0 -9 -11 -15
-25z"/>
<path d="M4354 2255 c-5 -13 2 -27 28 -49 l34 -31 -12 -49 c-7 -28 -11 -53 -8
-58 3 -4 -1 -8 -9 -8 -9 0 -13 -11 -12 -34 0 -19 -2 -33 -6 -31 -3 3 -12 -8
-18 -23 -7 -15 -24 -48 -38 -75 -13 -26 -26 -66 -29 -90 -2 -23 -20 -72 -39
-109 -39 -76 -40 -78 -22 -78 16 0 100 148 91 162 -4 6 -3 8 3 5 6 -4 24 24
41 64 17 38 27 67 22 64 -17 -11 -11 29 11 70 11 22 21 54 22 71 1 18 5 30 10
27 6 -4 11 10 9 28 -1 3 12 6 28 5 21 -1 26 -4 18 -13 -7 -9 -7 -13 1 -13 7 0
9 -5 5 -12 -4 -6 -3 -8 3 -5 6 4 25 -15 44 -41 18 -26 39 -53 46 -60 7 -7 13
-17 13 -21 0 -4 9 -19 21 -32 11 -13 23 -36 26 -51 3 -16 9 -28 14 -28 5 0 9
-5 9 -11 0 -13 19 -32 47 -47 14 -8 20 -18 16 -32 -3 -11 0 -20 6 -20 6 0 8 7
4 17 -5 12 -3 14 7 8 15 -9 14 -6 -25 70 -31 61 -39 74 -65 103 -8 10 -28 42
-44 72 -38 72 -62 106 -108 157 -37 41 -53 46 -23 7 16 -21 19 -34 8 -34 -5 0
-23 22 -42 49 -18 27 -44 59 -57 72 -22 20 -24 21 -30 4z m169 -176 c4 -16 3
-18 -9 -8 -16 13 -19 29 -5 29 5 0 11 -9 14 -21z m-158 -188 c-3 -6 -11 -11
-17 -11 -6 0 -6 6 2 15 14 17 26 13 15 -4z m-23 -53 c-8 -8 -9 -4 -5 13 4 13
8 18 11 10 2 -7 -1 -18 -6 -23z m358 -20 c0 -6 -7 -5 -15 2 -8 7 -15 17 -15
22 0 6 7 5 15 -2 8 -7 15 -17 15 -22z"/>
<path d="M4400 2267 c0 -12 49 -66 54 -59 3 5 -3 17 -14 27 -11 10 -17 22 -14
26 3 5 -2 9 -10 9 -9 0 -16 -1 -16 -3z"/>
<path d="M3113 2148 c-18 -67 -26 -126 -14 -108 6 8 11 27 11 41 0 14 5 40 11
57 6 17 9 36 7 42 -2 6 -9 -8 -15 -32z"/>
<path d="M2790 2021 c-41 -32 -93 -74 -114 -94 -22 -20 -48 -39 -58 -43 -18
-5 -23 -16 -12 -27 12 -11 58 19 114 73 30 30 80 76 110 102 77 67 50 59 -40
-11z"/>
<path d="M3079 1980 c-6 -45 -4 -58 7 -48 3 3 4 26 2 49 l-3 44 -6 -45z"/>
<path d="M3360 1972 c0 -10 -5 -23 -12 -30 -7 -7 -9 -12 -6 -12 4 0 2 -15 -3
-32 -17 -60 -19 -87 -7 -94 8 -5 9 -2 5 9 -3 9 -2 19 2 21 5 3 11 22 14 43 4
21 10 55 16 76 5 21 5 37 0 37 -5 0 -9 -8 -9 -18z"/>
<path d="M4396 1965 c-9 -26 -7 -32 5 -12 6 10 9 21 6 23 -2 3 -7 -2 -11 -11z"/>
<path d="M3061 1904 c0 -11 3 -14 6 -6 3 7 2 16 -1 19 -3 4 -6 -2 -5 -13z"/>
<path d="M3046 1828 c-3 -13 -5 -34 -5 -48 1 -15 5 -7 10 19 9 47 6 68 -5 29z"/>
<path d="M4235 1770 c-9 -16 -12 -30 -7 -30 4 0 13 14 19 30 6 17 10 30 7 30
-2 0 -10 -13 -19 -30z"/>
<path d="M4737 1714 c-3 -3 1 -13 9 -21 8 -8 12 -19 9 -24 -4 -5 -1 -9 5 -9 6
0 8 -4 5 -10 -3 -5 -2 -10 4 -10 18 0 24 23 9 34 -8 6 -19 19 -24 29 -6 10
-13 15 -17 11z"/>
</g>
</svg>
