<?xml version="1.0" standalone="no"?>
<!DOCTYPE svg PUBLIC "-//W3C//DTD SVG 20010904//EN"
 "http://www.w3.org/TR/2001/REC-SVG-20010904/DTD/svg10.dtd">
<svg version="1.0" xmlns="http://www.w3.org/2000/svg"
 width="800.000000pt" height="800.000000pt" viewBox="0 0 800.000000 800.000000"
 preserveAspectRatio="xMidYMid meet">
<metadata>
Created by potrace 1.11, written by Peter Selinger 2001-2013
</metadata>
<g transform="translate(0.000000,800.000000) scale(0.100000,-0.100000)"
fill="#000000" stroke="none">
<path d="M4635 7870 c-90 -6 -158 -18 -295 -52 -41 -10 -158 -64 -170 -78 -3
-3 -25 -14 -50 -25 -146 -64 -361 -262 -488 -452 -57 -84 -134 -239 -157 -313
-67 -218 -84 -309 -86 -443 -1 -90 -3 -106 -15 -96 -8 6 -14 17 -14 24 0 8 -3
15 -7 17 -5 2 -28 43 -53 92 -67 134 -171 267 -312 397 -122 114 -227 199
-248 199 -5 0 -10 4 -10 8 0 4 -12 13 -27 20 -16 7 -50 26 -78 42 -74 42 -111
58 -189 81 -39 12 -85 27 -101 34 -61 27 -227 51 -330 47 -102 -4 -200 -14
-216 -23 -9 -4 -31 -10 -50 -12 -53 -7 -143 -42 -191 -75 -43 -30 -138 -132
-138 -149 0 -4 -11 -24 -23 -43 -32 -47 -64 -148 -76 -240 -15 -113 11 -227
73 -320 77 -117 196 -228 297 -277 119 -59 305 -124 404 -143 154 -29 239 -40
350 -45 66 -3 131 -8 145 -11 57 -13 178 -22 290 -23 69 -1 71 -11 5 -31 -128
-40 -391 -177 -581 -303 -239 -159 -513 -436 -656 -663 -151 -238 -271 -516
-328 -759 -12 -48 -25 -97 -30 -109 -4 -12 -15 -74 -24 -137 -48 -349 -46
-794 5 -1064 12 -60 24 -130 28 -155 10 -65 125 -408 157 -470 7 -14 32 -65
55 -115 23 -49 55 -109 70 -132 16 -23 29 -44 29 -48 0 -4 14 -27 32 -53 35
-51 35 -52 74 -100 24 -29 26 -39 20 -85 -11 -88 -16 -114 -42 -200 -14 -45
-34 -112 -44 -149 -30 -101 -91 -220 -181 -348 -78 -112 -133 -213 -159 -294
-12 -39 -9 -182 6 -233 7 -24 -1 -28 -91 -42 -101 -16 -128 -22 -180 -42 -27
-11 -97 -33 -154 -49 -128 -36 -167 -66 -126 -100 11 -10 31 -7 97 14 81 25
163 45 203 50 48 7 181 36 255 57 19 5 49 12 65 15 17 3 71 14 120 24 50 10
128 24 174 30 45 6 117 20 159 31 42 11 100 22 127 25 28 3 56 7 63 9 7 3 56
11 110 20 53 8 145 24 204 36 59 11 137 24 175 29 85 11 173 28 238 45 60 15
212 43 275 51 25 2 72 11 105 19 33 7 92 16 131 20 83 7 181 22 193 29 5 3 33
8 62 11 81 9 100 12 149 24 93 22 317 63 361 66 26 2 87 14 135 26 49 12 105
23 124 25 53 5 254 35 260 39 3 2 56 10 119 19 62 10 139 23 170 31 31 7 79
16 106 20 100 12 221 27 255 32 19 3 64 7 100 10 36 2 91 11 122 19 31 8 85
17 120 20 35 3 70 8 78 11 8 3 29 6 45 8 17 1 44 4 60 8 17 3 57 9 90 12 149
13 264 27 314 36 29 6 83 12 120 14 36 2 93 8 126 14 70 12 140 19 425 41 74
6 162 13 195 15 147 13 176 15 275 20 58 4 143 8 190 10 47 2 105 6 130 9 49
6 276 19 300 18 8 -1 39 1 68 4 l52 5 0 43 0 42 -77 -4 c-43 -2 -89 -4 -103
-5 -17 -1 -25 4 -28 18 -10 61 -111 193 -148 195 -6 0 -22 10 -35 21 -57 51
-131 99 -234 153 -168 88 -249 154 -373 301 -42 49 -83 98 -92 108 -70 82
-233 405 -278 552 -58 191 -75 260 -93 375 -5 36 -11 72 -14 80 -10 34 -32
265 -40 420 -15 303 -22 369 -61 560 -79 386 -163 584 -391 920 -72 106 -301
337 -442 445 -57 44 -118 92 -135 106 -59 49 -347 206 -457 249 -176 69 -213
80 -454 131 -175 36 -350 56 -542 62 -76 3 -53 18 109 71 185 62 219 75 486
197 35 16 65 29 67 29 3 0 66 34 140 75 75 41 138 75 141 75 5 0 28 17 154
117 93 74 197 206 246 311 30 66 74 245 74 304 0 218 -187 416 -460 487 -68
17 -214 43 -222 39 -2 -1 -48 -4 -103 -8z m200 -75 c116 -12 157 -21 217 -46
130 -55 225 -135 270 -226 26 -53 31 -77 34 -151 3 -92 -5 -135 -47 -232 -27
-64 -116 -185 -188 -258 -149 -150 -533 -389 -761 -475 -36 -14 -90 -35 -120
-47 -30 -13 -71 -29 -90 -37 -19 -8 -42 -18 -50 -22 -8 -4 -40 -14 -70 -21
-102 -24 -248 -71 -300 -96 -107 -51 -259 -63 -281 -21 -22 40 -12 267 22 492
11 73 46 213 59 230 4 6 20 42 35 80 38 92 119 238 164 295 108 136 207 239
296 306 170 129 440 231 643 243 12 0 87 -6 167 -14z m-2800 -510 c176 -17
247 -30 365 -69 229 -75 480 -241 615 -407 19 -24 49 -60 65 -79 90 -107 148
-194 212 -318 20 -40 46 -88 57 -105 20 -33 38 -107 26 -107 -4 0 -25 15 -48
34 -51 41 -172 105 -247 130 -30 11 -76 30 -102 43 -55 27 -58 27 -58 10 0
-18 68 -72 197 -159 129 -87 197 -121 230 -115 14 3 22 0 20 -6 -2 -6 -44 -22
-93 -34 -81 -22 -102 -23 -239 -17 -82 3 -184 5 -225 3 -124 -5 -239 0 -355
16 -60 8 -128 16 -150 19 -22 2 -51 7 -65 10 -14 3 -41 8 -60 11 -19 3 -51 9
-70 15 -19 5 -60 16 -92 23 -152 39 -238 77 -373 166 -121 80 -163 122 -208
206 -65 124 -82 244 -52 369 33 138 191 290 355 341 61 19 171 34 210 29 14
-2 52 -6 85 -9z m2549 -1281 c33 -8 75 -21 91 -28 17 -8 59 -24 95 -36 191
-66 465 -251 639 -430 75 -77 206 -260 252 -353 60 -118 132 -308 148 -391 5
-23 23 -110 40 -195 35 -172 36 -178 52 -311 14 -117 17 -411 6 -540 -9 -105
-45 -331 -53 -339 -3 -3 -2 28 1 69 4 41 8 207 9 368 3 260 5 294 20 311 23
25 17 55 -11 59 -22 3 -29 20 -38 89 -2 21 -9 61 -15 88 -6 28 -12 64 -14 80
-3 28 -25 102 -93 310 -25 78 -67 180 -100 240 -9 17 -36 68 -61 115 -24 47
-57 101 -71 120 -15 19 -38 53 -52 75 -53 82 -251 291 -374 394 -104 87 -285
199 -427 263 -148 67 -150 69 -44 42z m-899 -276 c-27 -268 -151 -553 -347
-797 -124 -153 -346 -352 -523 -467 -93 -60 -94 -60 -36 -3 30 30 68 72 85 95
17 23 60 77 96 122 36 44 92 119 125 166 33 47 71 101 85 120 14 18 31 42 38
52 7 11 32 48 56 84 78 115 222 343 256 405 18 33 47 83 65 110 18 28 47 78
65 113 17 34 34 62 37 62 2 0 1 -28 -2 -62z m1046 -150 c43 -39 101 -121 118
-165 17 -43 7 -81 -26 -94 -39 -15 -63 8 -112 105 -23 47 -46 88 -51 91 -16
10 -22 65 -10 80 19 23 43 18 81 -17z m-873 -10 c16 -16 15 -59 -2 -128 -21
-83 -48 -150 -73 -176 -19 -20 -26 -22 -51 -13 -45 16 -49 55 -12 133 17 35
30 68 30 75 0 22 40 90 62 105 27 19 31 19 46 4z m166 -20 c22 -31 20 -93 -4
-171 -29 -93 -65 -121 -104 -81 -22 21 -20 47 10 150 34 120 64 151 98 102z
m193 4 c22 -14 33 -63 33 -150 0 -80 -2 -89 -26 -115 -21 -23 -32 -27 -53 -22
-39 10 -43 22 -37 110 7 93 19 140 42 166 19 21 24 22 41 11z m881 -56 c52
-49 122 -156 122 -188 0 -20 -32 -48 -55 -48 -58 0 -196 246 -158 283 14 15
35 5 91 -47z m-599 -91 c39 -45 111 -155 111 -170 0 -13 -49 -21 -175 -27 -45
-3 -50 -1 -48 17 1 11 10 76 19 144 l17 124 25 -29 c13 -16 36 -42 51 -59z
m-1418 -21 c27 -33 -6 -155 -69 -251 -37 -57 -52 -66 -88 -57 -21 5 -24 12
-24 51 0 26 6 51 15 59 8 8 19 32 24 52 6 21 25 60 42 87 46 75 73 91 100 59z
m-224 -20 c3 -9 -2 -31 -11 -50 -9 -19 -16 -44 -16 -54 0 -11 -4 -20 -9 -20
-5 0 -12 -15 -15 -32 -4 -18 -17 -53 -29 -78 -19 -38 -27 -45 -55 -48 -18 -2
-40 2 -49 9 -37 32 19 186 93 257 36 35 81 43 91 16z m2919 -72 c59 -33 121
-116 148 -200 17 -51 17 -54 0 -73 -9 -10 -26 -19 -37 -19 -25 0 -67 38 -67
60 0 9 -9 25 -19 34 -29 26 -105 182 -98 200 8 20 34 20 73 -2z m-3347 -41
c22 -14 15 -60 -23 -162 -55 -143 -67 -163 -99 -167 -33 -4 -57 13 -57 39 0
24 25 99 56 167 13 29 24 56 24 61 0 10 67 71 78 71 4 0 13 -4 21 -9z m2204
-100 c29 -1 103 -174 148 -346 14 -54 13 -62 -4 -57 -91 27 -398 10 -547 -29
-96 -25 -134 -43 -159 -76 -39 -48 -18 -67 46 -42 36 14 281 69 353 79 64 9
164 5 272 -11 71 -10 76 -13 81 -38 3 -14 4 -28 2 -29 -2 -2 -21 2 -42 9 -95
31 -410 9 -578 -41 -216 -65 -455 -216 -512 -324 -21 -41 -9 -122 23 -142 31
-21 56 -12 134 50 160 128 223 164 360 209 130 42 200 50 364 44 142 -5 157
-8 243 -41 124 -48 172 -76 274 -158 102 -82 161 -150 200 -233 25 -51 29 -72
29 -142 0 -281 -120 -691 -235 -804 -49 -48 -56 -73 -25 -89 17 -9 30 -5 73
20 29 17 69 45 89 62 21 17 40 29 44 26 3 -3 -2 -46 -11 -95 -9 -48 -20 -119
-25 -158 -8 -61 -14 -74 -42 -98 -64 -55 -197 -137 -279 -172 -46 -20 -97 -42
-114 -50 -16 -8 -95 -38 -175 -66 -391 -140 -765 -229 -1163 -275 -31 -3 -60
-10 -63 -15 -3 -5 -9 -7 -14 -4 -5 3 -53 -1 -107 -9 -82 -13 -285 -30 -358
-30 -11 0 -66 3 -122 8 -56 4 -146 9 -200 11 -303 9 -659 156 -728 302 -16 32
-16 43 -5 87 18 73 22 76 77 60 88 -27 153 -14 153 31 0 18 -12 31 -54 54 -78
45 -82 52 -60 109 10 26 19 56 20 67 10 90 5 119 -39 214 -29 64 -30 70 -29
214 1 173 21 283 77 422 49 122 78 169 149 243 90 94 232 167 345 178 31 3 61
7 67 9 5 1 53 -1 105 -7 100 -10 234 -46 309 -82 52 -26 85 -18 95 22 15 60
-36 123 -138 173 -26 13 -47 25 -47 28 0 4 42 21 93 40 118 43 158 62 287 133
57 32 109 58 115 58 18 -1 -118 -121 -173 -154 -30 -17 -66 -38 -80 -47 -15
-8 -28 -25 -30 -37 -5 -34 43 -28 187 23 273 99 541 234 680 343 130 103 275
292 354 464 l45 96 49 7 c26 3 55 8 63 9 8 2 42 2 75 1 33 -2 68 -4 78 -4z
m-2416 -37 c3 -9 -3 -46 -14 -83 -12 -36 -24 -79 -28 -96 -7 -34 -32 -65 -51
-65 -26 0 -44 30 -38 63 11 59 54 172 71 185 23 17 52 15 60 -4z m-358 -197
c12 -15 8 -45 -13 -97 -7 -19 -19 -57 -25 -85 -22 -93 -63 -122 -97 -70 -15
24 -15 30 1 88 9 34 21 67 25 72 4 6 11 21 15 35 16 55 68 87 94 57z m-207
-248 c7 -40 5 -74 -8 -121 -3 -11 -15 -18 -29 -18 -41 0 -49 71 -17 143 26 58
44 57 54 -4z m3536 -59 c13 -53 32 -147 32 -159 0 -15 -31 -21 -48 -11 -46 27
-52 36 -43 71 5 19 15 62 22 96 14 69 21 70 37 3z m782 -1242 c0 -3 -10 -4
-21 -1 -19 5 -21 11 -15 51 3 25 6 52 7 61 1 13 27 -88 29 -111z m0 -85 c21
-20 35 -46 46 -87 14 -54 14 -63 -1 -109 -9 -28 -28 -65 -42 -83 -28 -37 -149
-118 -162 -109 -5 3 1 34 14 69 13 35 31 99 40 142 9 44 24 104 33 134 9 30
15 58 14 63 -5 17 30 5 58 -20z m175 -478 c69 -152 121 -250 168 -320 29 -42
56 -85 62 -94 54 -89 88 -132 167 -212 51 -52 107 -106 123 -120 44 -38 165
-114 205 -129 19 -7 40 -16 45 -20 6 -3 29 -12 53 -20 44 -14 59 -32 20 -23
-79 17 -120 34 -242 94 -43 21 -84 39 -91 39 -7 0 -38 19 -68 43 -30 23 -97
74 -149 113 -192 146 -370 383 -456 607 l-42 108 60 58 c33 33 60 65 60 72 1
8 14 -22 31 -66 17 -44 41 -102 54 -130z m-1458 -505 c26 -6 76 -21 111 -34
l63 -22 -153 -155 c-84 -85 -169 -167 -188 -182 -19 -16 -117 -109 -218 -208
-161 -157 -202 -192 -202 -175 0 3 14 40 30 83 17 42 30 81 30 86 0 4 9 27 19
50 10 23 26 60 35 82 46 113 193 404 206 409 8 2 56 20 105 40 103 40 98 39
162 26z m257 -96 c23 -9 21 -16 -31 -91 -74 -106 -385 -407 -473 -457 -10 -6
-39 -26 -65 -44 -26 -18 -63 -41 -83 -51 -20 -11 -46 -28 -57 -38 -11 -10 -47
-38 -80 -63 -33 -25 -63 -49 -67 -55 -5 -6 -8 -2 -8 8 0 9 5 17 11 17 13 0
148 121 299 268 52 51 130 125 173 165 42 39 139 133 215 209 75 75 140 137
144 137 3 1 13 -2 22 -5z m-637 -38 c-9 -13 -29 -27 -45 -30 -40 -9 -92 -43
-92 -61 0 -10 10 -15 35 -15 41 0 42 -5 14 -70 -20 -46 -23 -48 -67 -54 -108
-15 -249 -50 -288 -72 -24 -13 -45 -24 -47 -24 -3 0 -8 17 -11 38 -4 20 -14
59 -23 87 -12 35 -13 50 -4 53 6 2 37 23 69 46 60 44 80 50 279 86 61 11 128
27 150 34 46 16 50 14 30 -18z m-2089 -97 c26 -10 28 1 -20 -152 -30 -93 -42
-109 -59 -76 -43 82 -51 111 -43 157 5 26 8 57 8 70 -1 22 1 22 45 16 25 -4
56 -11 69 -15z m2791 -145 c-34 -82 -71 -161 -81 -176 -10 -14 -18 -31 -18
-38 0 -6 -6 -10 -12 -8 -21 7 -37 68 -37 138 l-1 65 67 70 c81 85 124 118 136
106 5 -5 -19 -73 -54 -157z m-1304 109 c3 -21 17 -72 30 -113 13 -41 31 -101
39 -132 9 -31 34 -100 55 -152 22 -53 37 -96 35 -96 -5 0 -137 113 -199 171
-22 20 -84 76 -138 125 l-98 88 28 22 c15 13 39 29 53 36 14 7 45 26 70 43 55
37 69 43 97 44 18 1 23 -6 28 -36z m-216 -230 c53 -49 123 -110 156 -138 32
-27 80 -68 105 -90 25 -22 76 -67 113 -99 37 -32 66 -61 63 -63 -2 -3 -41 11
-86 31 -73 32 -143 77 -205 133 -11 10 -46 35 -78 57 -31 21 -57 42 -57 47 0
4 -37 45 -82 90 l-83 81 24 19 c13 10 25 19 28 19 2 0 48 -39 102 -87z m662
49 c-6 -12 -36 -24 -93 -36 -46 -10 -110 -27 -142 -38 -48 -16 -61 -17 -67 -6
-15 23 -11 25 69 48 42 12 97 27 122 34 25 8 62 14 83 15 33 1 37 -1 28 -17z
m2969 -4 c47 -13 76 -24 64 -26 -11 -2 -54 8 -95 22 -94 31 -79 33 31 4z
m-1824 -33 l26 -46 -55 -72 c-30 -40 -61 -82 -68 -95 -13 -21 -18 -22 -79 -16
-36 4 -85 7 -110 5 l-45 -2 27 26 c15 14 32 25 37 25 6 0 59 49 118 110 59 60
111 110 115 110 4 0 19 -20 34 -45z m-520 -27 c4 -13 21 -53 39 -91 l32 -67
-21 -23 c-12 -12 -33 -33 -48 -46 l-27 -23 5 61 c6 76 -12 116 -56 126 l-31 7
43 38 c24 22 46 39 50 40 4 0 10 -10 14 -22z m-1390 -95 c20 -18 23 -29 19
-60 -18 -136 -37 -268 -38 -269 -31 -18 -117 -87 -117 -94 0 -22 -27 -8 -44
23 -11 17 -28 42 -39 54 -19 22 -19 22 16 115 35 93 54 146 84 245 l16 53 40
-23 c21 -12 50 -32 63 -44z m722 55 c-11 -41 -52 -168 -64 -194 -7 -18 -16
-48 -19 -68 -4 -20 -10 -36 -14 -36 -14 0 -108 170 -125 226 -7 23 -6 24 114
62 77 24 113 27 108 10z m2933 -100 c104 -102 161 -180 143 -198 -5 -5 -36 -9
-69 -9 -33 0 -89 -1 -123 -1 l-64 -1 8 53 c5 29 8 92 7 141 -1 63 2 87 11 87
7 0 46 -33 87 -72z m-3524 -110 c-54 -15 -63 -11 -59 32 l4 39 39 -32 c36 -30
37 -32 16 -39z m-1524 -22 c-24 -29 -120 -120 -167 -158 l-39 -32 29 44 c16
25 38 59 49 76 11 16 34 58 50 92 l29 62 33 -32 c31 -30 32 -33 16 -52z m3497
27 c5 -7 10 -15 10 -18 0 -6 100 -155 110 -165 14 -13 50 -64 50 -70 0 -4 -39
-11 -87 -15 -91 -7 -318 -39 -318 -45 0 -1 -9 -3 -20 -4 -11 -2 -34 -6 -50
-10 -34 -7 -25 -17 -100 120 l-23 41 37 17 c70 33 308 173 330 195 13 11 18
10 33 -10 10 -13 22 -29 28 -36z m-570 -57 c0 -9 48 -114 91 -200 22 -43 36
-82 32 -86 -13 -12 -172 -39 -263 -45 -47 -3 -102 -11 -123 -17 -43 -13 -57
-6 -35 19 8 10 22 38 32 63 10 25 24 59 31 76 8 18 17 49 21 70 4 20 13 49 20
63 8 14 14 32 14 39 0 7 12 12 28 12 15 0 33 5 38 10 6 6 26 19 45 29 33 18
34 18 51 -5 10 -12 18 -25 18 -28z m-287 -36 c14 0 16 -6 12 -32 -4 -18 -10
-37 -15 -42 -12 -12 -215 -55 -360 -75 -118 -17 -160 -16 -174 7 -4 8 59 41
164 85 82 35 239 66 305 61 28 -2 58 -4 68 -4z m-745 -140 c34 -7 65 -16 68
-21 12 -20 -205 -56 -384 -63 l-133 -5 3 42 c3 42 3 42 53 53 63 14 310 10
393 -6z m-2020 -52 c-31 -99 -40 -334 -17 -423 13 -46 54 -131 69 -140 22 -13
10 -35 -19 -35 -17 0 -32 -4 -35 -8 -2 -4 -22 -9 -43 -10 -20 -2 -57 -7 -82
-13 -26 -6 -48 -6 -53 -1 -14 14 9 268 33 358 11 43 33 109 49 146 47 111 125
210 98 126z m2045 -150 c-42 -98 -49 -105 -117 -112 l-58 -6 31 38 c44 56 164
167 168 155 2 -5 -9 -39 -24 -75z m268 63 c50 -22 126 -86 113 -94 -5 -3 -26
-8 -47 -12 -43 -8 -56 1 -94 71 -34 62 -34 62 28 35z m-953 -93 l113 -12 -8
-31 c-4 -16 -6 -43 -5 -60 4 -52 -6 -75 -32 -75 -13 0 -41 -6 -62 -13 -22 -8
-56 -14 -76 -15 -20 -1 -65 -6 -99 -11 -35 -6 -65 -8 -67 -6 -3 2 13 59 34
125 38 117 40 121 64 115 14 -3 76 -11 138 -17z m268 -62 c23 -3 61 0 84 5 24
5 45 8 47 5 3 -3 -5 -18 -18 -35 -26 -32 -83 -56 -161 -67 l-48 -6 0 38 c0 22
3 56 6 76 l6 36 22 -24 c14 -17 34 -26 62 -28z m538 39 c3 -8 1 -15 -4 -15 -6
0 -10 7 -10 15 0 8 2 15 4 15 2 0 6 -7 10 -15z"/>
<path d="M3685 6498 c-44 -39 -89 -81 -100 -94 -40 -45 -65 -76 -65 -80 0 -2
-12 -22 -26 -43 -53 -80 -10 -147 53 -83 50 52 82 96 110 149 16 29 31 53 36
53 4 0 7 4 7 9 0 6 19 40 41 76 25 39 38 70 33 75 -5 5 -42 -21 -89 -62z"/>
<path d="M4520 4273 c-45 -8 -43 -21 7 -31 26 -6 73 -22 103 -35 56 -25 71
-43 91 -111 21 -71 -38 -152 -150 -204 -47 -21 -69 -25 -155 -25 -85 -1 -108
3 -148 22 -58 28 -70 42 -71 83 -3 103 54 187 162 238 70 34 88 50 54 50 -106
0 -274 -141 -363 -304 -71 -129 -103 -267 -99 -431 4 -162 58 -282 170 -377
71 -60 100 -73 195 -93 190 -38 377 10 521 135 77 67 159 208 178 305 19 101
6 266 -30 375 -40 122 -158 283 -250 344 -47 31 -150 68 -180 65 -5 -1 -21 -4
-35 -6z m96 -651 c7 -5 8 -28 2 -72 -4 -36 -12 -106 -17 -156 -6 -51 -16 -116
-24 -145 -8 -31 -10 -66 -6 -81 6 -24 4 -27 -37 -37 -52 -13 -67 -14 -60 -2 3
5 10 53 16 107 6 53 14 102 19 108 4 6 11 29 14 51 21 152 30 202 38 217 10
19 36 23 55 10z m143 -8 c24 -5 31 -12 31 -30 0 -12 -4 -25 -8 -28 -5 -3 -9
-29 -10 -58 -1 -29 -7 -82 -12 -118 -6 -36 -14 -90 -18 -120 -7 -50 -10 -56
-42 -72 -46 -23 -51 -22 -45 5 5 24 11 68 26 197 5 47 12 94 16 105 8 24 11
49 12 93 1 34 2 35 50 26z m-282 -26 c-12 -54 -37 -175 -41 -203 -3 -16 -15
-82 -28 -145 l-23 -115 -42 6 c-47 6 -64 16 -45 28 11 7 32 85 49 181 3 19 9
40 14 45 4 6 11 35 14 65 4 30 9 62 12 70 8 20 8 21 17 52 8 26 21 34 60 37
14 1 17 -4 13 -21z m450 -108 c-6 -66 -75 -208 -91 -189 -2 3 29 267 33 277 1
1 15 -8 32 -20 28 -21 31 -27 26 -68z m-627 49 c0 -7 -9 -42 -19 -78 -11 -36
-24 -100 -31 -141 -20 -137 -19 -134 -62 -97 -30 26 -31 10 12 162 6 22 18 64
26 93 10 37 21 56 37 62 30 12 37 12 37 -1z m-171 -101 c0 -7 -8 -33 -19 -58
-18 -44 -18 -44 -25 -18 -5 18 -1 37 11 57 19 32 34 40 33 19z"/>
<path d="M2702 3951 c-33 -6 -32 -6 28 -25 72 -23 136 -74 145 -116 11 -48
-22 -125 -65 -155 -103 -72 -278 -106 -350 -68 -47 24 -62 70 -47 138 14 62
96 150 182 195 l60 32 -49 -7 c-88 -12 -154 -52 -227 -137 -36 -43 -80 -104
-97 -137 -29 -57 -66 -184 -79 -279 -35 -238 66 -481 236 -566 80 -41 143 -49
261 -34 108 14 179 56 260 154 116 141 163 301 148 502 -7 87 -14 118 -46 195
-45 107 -102 188 -169 239 -83 62 -132 80 -191 69z m225 -605 c4 -4 -25 -312
-32 -352 -5 -21 -73 -76 -86 -69 -3 3 -1 33 6 67 7 35 16 95 19 133 6 64 10
98 21 180 2 17 4 36 4 44 1 10 10 12 33 7 17 -3 33 -8 35 -10z m-152 -63 c-4
-38 -8 -75 -10 -83 -2 -8 -13 -62 -25 -120 -14 -66 -20 -122 -16 -152 5 -44 3
-48 -17 -49 -12 0 -34 -2 -49 -3 -35 -2 -35 6 -4 143 24 101 53 244 64 304 3
22 9 27 34 27 l30 0 -7 -67z m-147 0 c-5 -27 -13 -57 -18 -68 -8 -20 -48 -215
-59 -291 l-6 -42 -42 20 -41 20 13 46 c8 26 18 72 24 103 17 98 72 240 95 249
41 17 44 13 34 -37z m404 -9 c-3 -34 -41 -145 -54 -159 -6 -6 -7 0 -3 16 3 14
8 54 9 90 6 124 3 113 29 96 16 -11 21 -23 19 -43z m-567 -41 c-4 -10 -11 -36
-17 -58 -12 -54 -50 -168 -58 -178 -4 -4 -15 4 -24 19 -17 25 -17 28 3 76 12
28 21 55 21 60 0 16 60 98 72 98 6 0 7 -7 3 -17z m-121 -70 c-8 -31 -22 -53
-35 -53 -15 0 -10 30 9 55 23 32 34 31 26 -2z"/>
<path d="M3857 2753 c-4 -3 -7 -19 -7 -35 0 -60 -55 -125 -125 -148 -46 -15
-77 -7 -142 36 -29 19 -57 34 -63 34 -33 0 17 -82 75 -121 53 -37 90 -42 154
-23 61 18 145 89 167 141 17 40 18 95 2 111 -13 13 -50 16 -61 5z"/>
</g>
</svg>
